<svg width="200" height="38" viewBox="0 0 200 38" fill="none" xmlns="http://www.w3.org/2000/svg">
<g clip-path="url(#clip0_2807_734)">
<path d="M44.7058 17.7236H48.2823V13.8647H60.3293V11.0412H48.2823V8.87651H60.6117V5.86475H44.7058V17.7236Z" fill="white"/>
<path d="M76.9882 6.24122C75.5764 5.77063 73.694 5.5824 71.4352 5.5824C69.1764 5.5824 67.294 5.77063 65.8823 6.24122C64.4705 6.71181 63.3411 7.37063 62.6823 8.31181C62.0234 9.25299 61.647 10.3824 61.647 11.7942C61.647 13.2059 62.0234 14.4295 62.6823 15.2765C63.3411 16.2177 64.4705 16.8765 65.8823 17.3471C67.294 17.8177 69.1764 18.0059 71.4352 18.0059C73.694 18.0059 75.5764 17.8177 76.9882 17.3471C78.3999 16.8765 79.5293 16.2177 80.1881 15.2765C80.847 14.3353 81.2234 13.2059 81.2234 11.7942C81.2234 10.3824 80.847 9.15887 80.1881 8.31181C79.5293 7.37063 78.494 6.71181 76.9882 6.24122ZM77.3646 13.3C77.1764 13.6765 76.7999 14.053 76.3293 14.2412C75.8587 14.5236 75.1999 14.7118 74.447 14.8059C73.694 14.9 72.6587 14.9942 71.4352 14.9942C69.8352 14.9942 68.6117 14.9 67.6705 14.7118C66.7293 14.5236 66.1646 14.1471 65.7882 13.6765C65.4117 13.2059 65.2234 12.5471 65.2234 11.7942C65.2234 11.0412 65.4117 10.3824 65.7882 9.91181C66.1646 9.44122 66.8234 9.06475 67.6705 8.87651C68.6117 8.68828 69.8352 8.59416 71.4352 8.59416C72.6587 8.59416 73.5999 8.68828 74.447 8.7824C75.1999 8.87652 75.8587 9.06475 76.3293 9.3471C76.7999 9.62946 77.0823 9.91181 77.3646 10.2883C77.5529 10.6648 77.647 11.2295 77.647 11.7942C77.647 12.3589 77.5529 12.8295 77.3646 13.3Z" fill="white"/>
<path d="M97.6941 13.4883C98.3529 13.2059 98.8235 12.7353 99.1058 12.1706C99.3882 11.6059 99.5764 10.853 99.5764 10.0059C99.5764 9.25298 99.4823 8.59416 99.2 8.02945C98.9176 7.46475 98.6353 7.08828 98.1647 6.7118C97.6941 6.33533 97.2235 6.1471 96.5647 6.05298C95.9058 5.86475 95.247 5.86475 94.5882 5.86475H82.7294V17.8177H86.3058V14.3353H90.8235L95.1529 17.8177H99.5764L95.6235 14.7118L94.6823 14.1471H95.4353C96.3764 14.053 97.1294 13.8647 97.6941 13.4883ZM94.3058 11.6059H86.3058V8.87651H94.3058C94.8705 8.87651 95.3411 8.97063 95.6235 9.15886C95.9058 9.3471 96 9.72357 96 10.2883C96 10.7589 95.9058 11.1353 95.6235 11.3236C95.3411 11.5118 94.8705 11.6059 94.3058 11.6059Z" fill="white"/>
<path d="M112.659 14.8059L105.6 5.86475H101.271V17.7236H104.753V10.0059L110.871 17.7236H114.447L120.471 10.0059V17.7236H124.047V5.86475H119.812L112.659 14.8059Z" fill="white"/>
<path d="M136.188 5.86475H133.647H132.518L124.706 17.8177H128.941L130.353 15.4647H139.2L140.612 17.8177H144.941L137.129 5.86475H136.188ZM132.047 13.0177L134.871 8.40592L137.694 13.0177H132.047Z" fill="white"/>
<path d="M173.553 5.86475H171.012H169.882L162.071 17.8177H166.306L167.718 15.4647H176.565L177.976 17.8177H182.306L174.494 5.86475H173.553ZM169.318 13.0177L172.141 8.40592L174.965 13.0177H169.318Z" fill="white"/>
<path d="M195.012 14.1471H195.765C196.612 14.053 197.365 13.8647 198.023 13.5824C198.682 13.3 199.153 12.8295 199.435 12.2647C199.718 11.7 199.906 10.9471 199.906 10.1C199.906 9.3471 199.812 8.68827 199.529 8.12357C199.247 7.55886 198.965 7.18239 198.494 6.80592C198.023 6.42945 197.553 6.24122 196.894 6.1471C196.235 5.95886 195.576 5.95886 194.918 5.95886H182.965V17.9118H186.541V14.4295H191.059L195.388 17.9118H199.812L195.859 14.8059L195.012 14.1471ZM186.635 11.6059V8.87651H194.635C195.2 8.87651 195.67 8.97063 195.953 9.15886C196.235 9.3471 196.329 9.72357 196.329 10.2883C196.329 10.7589 196.235 11.1353 195.953 11.3236C195.67 11.5118 195.294 11.6059 194.635 11.6059H186.635Z" fill="white"/>
<path d="M144.094 11.7C144.094 10.853 144.282 10.0059 144.47 9.3471C144.753 8.59416 145.129 7.93533 145.694 7.46475C146.259 6.99416 146.918 6.52357 147.67 6.24122C148.423 5.95886 149.365 5.86475 150.4 5.86475H161.318V8.97063H150.776C149.741 8.97063 148.988 9.25298 148.423 9.72357C147.859 10.1942 147.576 10.9471 147.576 11.8883C147.576 12.8295 147.859 13.5824 148.423 14.053C148.988 14.5236 149.741 14.8059 150.776 14.8059H161.318V17.9118H150.4C149.365 17.9118 148.518 17.8177 147.67 17.5353C146.918 17.253 146.259 16.8765 145.694 16.3118C145.129 15.8412 144.753 15.1824 144.47 14.4295C144.188 13.7706 144.094 12.9236 144.094 12.0765V11.7Z" fill="white"/>
<path d="M27.9529 18.1941C23.6235 27.7941 18.447 32.0294 17.6941 32.1235C16.9412 32.0294 10.7294 26.4765 6.77644 16.9706C9.97644 16.3118 14.0235 15.9353 17.8823 15.9353C19.8588 15.9353 21.8353 16.1235 23.7176 16.2176C24.2823 14.8059 24.6588 13.5824 25.1294 11.7C22.7764 11.4176 20.4235 11.2294 17.7882 11.2294C13.3647 11.2294 8.94115 11.6059 5.36468 12.3588C4.79997 10.6647 4.32938 9.06471 4.04703 6.42941C7.71762 5.58235 12.5176 5.01765 17.4117 5.01765C20.5176 5.01765 23.7176 5.20588 26.447 5.58235C26.7294 4.17059 26.8235 2.94706 26.9176 1.15882C24.0941 0.688235 20.8 0.5 17.5059 0.5C10.6353 0.5 4.32938 1.53529 0.0940903 3.13529C0.282326 3.13529 -2.73567e-05 3.22941 -2.73567e-05 3.22941C-0.376498 23.3706 17.2235 36.7353 17.6941 37.3C18.2588 36.7353 35.4823 23.7471 35.4823 3.32353L35.3882 3.22941C35.2941 3.22941 35.1059 3.13529 34.7294 2.94706C33.6941 2.57059 32.9412 2.38235 31.7176 2.1C31.7176 2.1 31.4353 6.71176 30.9647 8.97059C29.8353 14.1471 27.9529 18.1941 27.9529 18.1941Z" fill="white"/>
<path d="M46.1177 29.7706C46.1177 30.2412 46.2118 30.6176 46.3059 30.9941C46.4001 31.3706 46.6824 31.6529 46.9648 31.8412C47.2471 32.0294 47.7177 32.2176 48.2824 32.3117C48.8471 32.4059 49.5059 32.5 50.2589 32.5C50.8236 32.5 51.4824 32.5 52.0471 32.4059C52.6118 32.3117 53.2706 32.2176 53.7412 32.1235C54.3059 32.0294 54.7765 31.9353 55.2471 31.8412L55.5295 32.9706C55.0589 33.0647 54.4942 33.1588 53.9295 33.2529C53.3648 33.347 52.7059 33.4412 52.0471 33.5353C51.3883 33.6294 50.8236 33.6294 50.1648 33.6294C49.2236 33.6294 48.3765 33.5353 47.7177 33.347C47.0589 33.1588 46.4942 32.9706 46.0236 32.5941C45.553 32.3117 45.2706 31.8412 45.0824 31.3706C44.8942 30.9 44.8 30.3353 44.8 29.5823C44.8 28.8294 44.8942 28.3588 45.0824 27.7941C45.2706 27.3235 45.6471 26.8529 46.0236 26.5706C46.4942 26.2882 47.0589 26.0059 47.7177 25.8176C48.3765 25.6294 49.2236 25.5353 50.1648 25.5353C50.7295 25.5353 51.3883 25.5353 52.0471 25.6294C52.7059 25.7235 53.2706 25.8176 53.9295 25.9117C54.4942 26.0059 55.0589 26.1 55.5295 26.2882L55.2471 27.4176C54.7765 27.3235 54.3059 27.2294 53.7412 27.1353C53.1765 27.0412 52.6118 26.947 52.0471 26.8529C51.4824 26.7588 50.8236 26.7588 50.2589 26.7588C49.5059 26.7588 48.8471 26.8529 48.2824 26.947C47.7177 27.0412 47.3412 27.2294 46.9648 27.5117C46.5883 27.7941 46.4001 28.0765 46.3059 28.3588C46.2118 28.6412 46.1177 29.3 46.1177 29.7706Z" fill="white"/>
<path d="M64.0941 33.6294H62.6824V25.9117H70.1177C70.5883 25.9117 71.0588 25.9117 71.3412 26.0059C71.7177 26.1 72 26.2882 72.2824 26.4764C72.5647 26.6647 72.753 26.947 72.8471 27.2294C72.9412 27.5117 73.0353 27.9823 73.0353 28.3588C73.0353 28.9235 72.9412 29.3941 72.753 29.6764C72.5647 30.0529 72.2824 30.3353 71.8118 30.5235C71.4353 30.7117 70.8706 30.8059 70.3059 30.8059H69.4588L70.1177 31.2764L72.8471 33.4412H71.0588L67.8588 30.8059H64V33.6294H64.0941ZM64.0941 27.1353V29.9588H70.0236C70.5883 29.9588 71.0588 29.8647 71.2471 29.6764C71.5294 29.4882 71.6235 29.1117 71.6235 28.547C71.6235 28.0764 71.5294 27.7 71.2471 27.4176C70.9647 27.2294 70.5883 27.1353 70.0236 27.1353H64.0941Z" fill="white"/>
<path d="M84.1412 30.6176L78.8706 25.9117H80.6588L84.8 29.4882L88.9412 25.9117H90.7294L85.553 30.6176V33.6294H84.1412V30.6176Z" fill="white"/>
<path d="M97.1295 33.6294V25.9117H104.565C105.035 25.9117 105.506 25.9117 105.788 26.0059C106.165 26.1 106.447 26.2882 106.73 26.4764C107.012 26.6647 107.2 26.947 107.294 27.2294C107.388 27.5117 107.482 27.8882 107.482 28.3588C107.482 28.9235 107.388 29.4882 107.106 29.8647C106.918 30.2412 106.541 30.5235 106.071 30.7117C105.6 30.9 105.13 30.9941 104.471 30.9941H98.353V33.5353H97.1295V33.6294ZM104.471 27.1353H98.5413V29.8647H104.471C105.035 29.8647 105.506 29.7706 105.694 29.5823C105.977 29.3941 106.071 29.0176 106.071 28.547C106.071 28.0764 105.977 27.7 105.694 27.5117C105.412 27.3235 105.035 27.1353 104.471 27.1353Z" fill="white"/>
<path d="M118.777 27.1353H114.165V25.9117H124.8V27.1353H120.188V33.6294H118.777V27.1353Z" fill="white"/>
<path d="M137.412 33.7235C136 33.7235 134.871 33.6294 134.024 33.347C133.082 33.0647 132.424 32.5941 132.047 32.0294C131.671 31.4647 131.388 30.7117 131.388 29.7706C131.388 28.8294 131.577 28.0765 132.047 27.5117C132.518 26.947 133.177 26.4765 134.024 26.1941C134.871 25.9117 136.094 25.7235 137.412 25.7235C138.824 25.7235 139.953 25.9117 140.8 26.1941C141.647 26.4765 142.4 26.947 142.777 27.5117C143.153 28.0765 143.435 28.8294 143.435 29.7706C143.435 30.7117 143.247 31.4647 142.777 32.0294C142.306 32.5941 141.647 33.0647 140.8 33.347C139.953 33.6294 138.824 33.7235 137.412 33.7235ZM137.412 32.5941C138.259 32.5941 139.012 32.5 139.577 32.4059C140.141 32.3117 140.612 32.1235 140.988 31.9353C141.365 31.747 141.647 31.3706 141.741 31.0882C141.929 30.7117 142.024 30.3353 142.024 29.8647C142.024 29.3941 141.929 28.9235 141.741 28.6412C141.553 28.2647 141.271 27.9823 140.988 27.7941C140.612 27.6059 140.141 27.4176 139.577 27.3235C139.012 27.2294 138.259 27.1353 137.412 27.1353C136.282 27.1353 135.341 27.2294 134.588 27.4176C133.929 27.6059 133.365 27.8882 133.082 28.3588C132.8 28.7353 132.612 29.3 132.612 29.9588C132.612 30.6176 132.8 31.1823 133.082 31.5588C133.365 31.9353 133.835 32.3117 134.588 32.5C135.341 32.5 136.282 32.5941 137.412 32.5941Z" fill="white"/>
</g>
<defs>
<clipPath id="clip0_2807_734">
<rect width="200" height="36.8" fill="white" transform="translate(0 0.5)"/>
</clipPath>
</defs>
</svg>
