<svg width="200" height="39" viewBox="0 0 200 39" fill="none" xmlns="http://www.w3.org/2000/svg">
<g clip-path="url(#clip0_2807_1516)">
<path d="M45.3247 19.3661H48.8623V15.4835H60.844V12.6945H48.8623V10.5184H61.1779V7.48718H45.3247V19.3661Z" fill="white"/>
<path d="M45.3247 19.3661V7.48718H61.1742V10.5184H48.8587V12.6945H60.844V15.4835H48.8587V19.3661H45.3247ZM45.3247 19.3661H48.8587V15.4835H60.844V12.6982H48.8587V10.522H61.1742V7.49085H45.3247V19.3661Z" fill="white"/>
<path d="M77.4788 7.90555C76.0513 7.46518 74.1981 7.245 71.9228 7.245C69.6586 7.245 67.8054 7.46518 66.3669 7.90555C64.9283 8.34591 63.8678 9.02114 63.1889 9.92756C62.51 10.834 62.1687 12.001 62.1687 13.4285C62.1687 14.845 62.51 16.0083 63.1889 16.9221C63.8678 17.8322 64.9283 18.511 66.3669 18.9514C67.8054 19.3918 69.6586 19.612 71.9228 19.612C74.1981 19.612 76.0513 19.3918 77.4788 18.9514C78.9063 18.511 79.9632 17.8358 80.6494 16.9221C81.3357 16.012 81.677 14.845 81.677 13.4285C81.677 12.001 81.3357 10.834 80.6494 9.92756C79.9632 9.02114 78.9063 8.34591 77.4788 7.90555ZM77.776 14.8817C77.5779 15.2817 77.2476 15.6083 76.7815 15.8578C76.3155 16.1074 75.688 16.2909 74.8916 16.4046C74.0953 16.5221 73.1045 16.5808 71.9228 16.5808C70.3302 16.5808 69.0861 16.478 68.187 16.2762C67.288 16.0744 66.6494 15.7404 66.2715 15.2744C65.8935 14.8083 65.7063 14.1955 65.7063 13.4285C65.7063 12.6615 65.8935 12.0487 66.2715 11.5826C66.6494 11.1166 67.288 10.7863 68.187 10.5808C69.0861 10.3789 70.3338 10.2762 71.9228 10.2762C73.1082 10.2762 74.0953 10.3312 74.8916 10.4413C75.688 10.5514 76.3155 10.7312 76.7815 10.9808C77.2476 11.2303 77.5779 11.5569 77.776 11.9569C77.9742 12.3569 78.0733 12.8487 78.0733 13.4285C78.0696 13.9973 77.9705 14.4817 77.776 14.8817Z" fill="white"/>
<path d="M71.9228 19.612C69.6696 19.612 67.7981 19.3881 66.3669 18.9514C64.932 18.511 63.8641 17.8285 63.1889 16.9221C62.5137 16.0156 62.1687 14.8377 62.1687 13.4285C62.1687 12.0083 62.51 10.8303 63.1889 9.92756C63.8641 9.02481 64.9357 8.34591 66.3669 7.90555C67.7981 7.46518 69.6696 7.245 71.9228 7.245C74.187 7.245 76.0586 7.46885 77.4788 7.90555C78.9026 8.34591 79.9669 9.02481 80.6494 9.92756C81.332 10.8303 81.677 12.0083 81.677 13.4285C81.677 14.8377 81.332 16.012 80.6494 16.9221C79.9669 17.8285 78.899 18.511 77.4788 18.9514C76.0586 19.3918 74.187 19.612 71.9228 19.612ZM71.9228 7.245C69.6696 7.245 67.7981 7.46885 66.3669 7.90555C64.932 8.34591 63.8641 9.02481 63.1889 9.92389C62.5137 10.8266 62.1687 12.0046 62.1687 13.4248C62.1687 14.834 62.51 16.0083 63.1889 16.9184C63.8641 17.8248 64.9357 18.5074 66.3669 18.9477C67.8017 19.3881 69.6696 19.6083 71.9228 19.6083C74.187 19.6083 76.0586 19.3844 77.4788 18.9477C78.899 18.511 79.9669 17.8248 80.6494 16.9184C81.332 16.012 81.677 14.8377 81.677 13.4248C81.677 12.0046 81.332 10.8266 80.6494 9.92389C79.9669 9.02114 78.9026 8.34224 77.4788 7.90187C76.0549 7.46885 74.187 7.245 71.9228 7.245ZM71.9228 16.5808C70.3375 16.5808 69.0788 16.478 68.187 16.2762C67.2916 16.0744 66.6458 15.7367 66.2715 15.2744C65.8971 14.812 65.7063 14.1918 65.7063 13.4285C65.7063 12.6652 65.8971 12.045 66.2715 11.5826C66.6458 11.1202 67.2916 10.7826 68.187 10.5808C69.0825 10.3789 70.3412 10.2762 71.9228 10.2762C73.1045 10.2762 74.1026 10.3312 74.8916 10.4413C75.6806 10.5514 76.3192 10.7312 76.7815 10.9808C77.2439 11.2303 77.5779 11.5569 77.776 11.9569C77.9742 12.3569 78.0733 12.8523 78.0733 13.4285C78.0733 13.9936 77.9742 14.4854 77.776 14.8817C77.5779 15.2817 77.2439 15.6083 76.7815 15.8578C76.3192 16.1074 75.6806 16.2909 74.8916 16.4046C74.099 16.5221 73.1008 16.5808 71.9228 16.5808ZM71.9228 10.2762C70.3412 10.2762 69.0825 10.3789 68.187 10.5808C67.2916 10.7826 66.6458 11.1202 66.2715 11.5826C65.8971 12.045 65.7063 12.6652 65.7063 13.4285C65.7063 14.1918 65.8971 14.812 66.2715 15.2744C66.6458 15.7367 67.2916 16.0744 68.187 16.2762C69.0825 16.478 70.3375 16.5808 71.9228 16.5808C73.1008 16.5808 74.1026 16.5221 74.8916 16.4046C75.6806 16.2909 76.3192 16.1074 76.7815 15.8578C77.2439 15.6083 77.5779 15.2817 77.776 14.8817C77.9742 14.4817 78.0733 13.9936 78.0733 13.4285C78.0733 12.8523 77.9742 12.3569 77.776 11.9569C77.5779 11.5569 77.2439 11.2303 76.7815 10.9808C76.3192 10.7312 75.6806 10.5514 74.8916 10.4413C74.099 10.3312 73.1008 10.2762 71.9228 10.2762Z" fill="white"/>
<path d="M98.0917 15.1423C98.7118 14.8341 99.1889 14.39 99.5192 13.8102C99.8495 13.2304 100.015 12.5038 100.015 11.6341C100.015 10.8561 99.8972 10.1992 99.6586 9.66711C99.4201 9.135 99.0825 8.70931 98.6385 8.39739C98.1944 8.08546 97.6733 7.85427 97.0605 7.70748C96.4513 7.56069 95.7797 7.49097 95.0495 7.49097H83.1559V19.3699H86.6898V15.9203H91.1999L95.4678 19.3699H99.9082L96.0073 16.3056L95.0678 15.7295L95.8348 15.7111C96.7192 15.6414 97.4715 15.4506 98.0917 15.1423ZM94.7045 13.2708H86.6935V10.5185H94.7045C95.2953 10.5185 95.721 10.6176 95.9779 10.8157C96.2348 11.0139 96.3595 11.3772 96.3595 11.913C96.3595 12.4011 96.2311 12.7497 95.9779 12.9589C95.721 13.168 95.2953 13.2708 94.7045 13.2708Z" fill="white"/>
<path d="M95.4715 19.3661L91.2036 15.9165H86.6935V19.3661H83.1559V7.48718H95.0531C95.7797 7.48718 96.4586 7.56058 97.0641 7.7037C97.6696 7.84681 98.2018 8.08168 98.6385 8.39361C99.0752 8.70553 99.4201 9.13489 99.6586 9.667C99.8935 10.1991 100.015 10.8597 100.015 11.634C100.015 12.5 99.8458 13.234 99.5192 13.8101C99.1889 14.3899 98.7082 14.8376 98.0917 15.1422C97.4751 15.4468 96.7155 15.6376 95.8348 15.7074L95.0678 15.7257L96.0073 16.2982L99.9082 19.3624L95.4715 19.3661ZM83.1559 7.48718V19.3661H86.6898V15.9165H91.2036L95.4715 19.3661H99.9118L96.0109 16.3019L95.0715 15.7257L95.8385 15.7074C96.7155 15.6376 97.4751 15.4468 98.0953 15.1422C98.7118 14.8376 99.1926 14.3863 99.5229 13.8101C99.8531 13.234 100.018 12.5 100.018 11.634C100.018 10.8597 99.8972 10.1991 99.6623 9.667C99.4238 9.13489 99.0825 8.7092 98.6421 8.39727C98.2017 8.08535 97.6733 7.85415 97.0678 7.70737C96.4586 7.56425 95.7834 7.49085 95.0568 7.49085H83.1559V7.48718ZM94.7045 13.2707H86.6935V10.5184H94.7082C95.299 10.5184 95.7247 10.6175 95.9816 10.8156C96.2348 11.0138 96.3632 11.3808 96.3632 11.9129C96.3632 12.3973 96.2348 12.7496 95.9816 12.9587C95.721 13.1642 95.2953 13.2707 94.7045 13.2707ZM86.6935 10.5184V13.2707H94.7045C95.2953 13.2707 95.721 13.1642 95.9742 12.9587C96.2274 12.7496 96.3559 12.4009 96.3559 11.9129C96.3559 11.3808 96.2274 11.0138 95.9742 10.8156C95.721 10.6175 95.2917 10.5184 94.7045 10.5184H86.6935Z" fill="white"/>
<path d="M113.009 16.4597L105.901 7.48718H101.6V19.3661H105.134V11.6853L111.178 19.3661H114.749L120.793 11.6853V19.3661H124.33V7.48718H120.096L113.009 16.4597Z" fill="white"/>
<path d="M120.793 19.3661V11.6853L114.749 19.3661H111.178L105.134 11.6853V19.3661H101.596V7.48718H105.897L113.005 16.456L120.095 7.48718H124.327V19.3661H120.793ZM120.793 11.6853V19.3661H124.327V7.48718H120.095L113.005 16.456L105.897 7.48718H101.596V19.3661H105.13V11.6853L111.174 19.3661H114.745L120.793 11.6853Z" fill="white"/>
<path d="M136.4 7.4873H133.839H132.76L125.028 19.3662H129.277L130.716 17.0653H139.494L140.932 19.3662H145.218L137.486 7.4873H136.4ZM132.246 14.6139L135.101 10.0488L137.956 14.6139H132.246Z" fill="white"/>
<path d="M140.928 19.3661L139.49 17.0652H130.712L129.273 19.3624H125.024L132.756 7.48352H137.475L145.211 19.3624L140.928 19.3661ZM132.76 7.48719L125.027 19.3661H129.277L130.716 17.0688H139.494L140.932 19.3698H145.218L137.483 7.49086L132.76 7.48719ZM132.246 14.6138L135.101 10.0487L137.956 14.6138H132.246ZM132.246 14.6101H137.952L135.097 10.045L132.246 14.6101Z" fill="white"/>
<path d="M173.589 7.4873H171.028H169.949L162.217 19.3662H166.466L167.905 17.0653H176.683L178.121 19.3662H182.407L174.675 7.4873H173.589ZM169.435 14.6139L172.29 10.0488L175.145 14.6139H169.435Z" fill="white"/>
<path d="M178.117 19.3661L176.679 17.0652H167.901L166.462 19.3624H162.213L169.945 7.48352H174.664L182.4 19.3624L178.117 19.3661ZM169.949 7.48719L162.216 19.3661H166.466L167.905 17.0688H176.683L178.121 19.3698H182.407L174.671 7.49086L169.949 7.48719ZM169.435 14.6138L172.29 10.0487L175.145 14.6138H169.435ZM169.435 14.6101H175.141L172.286 10.045L169.435 14.6101Z" fill="white"/>
<path d="M195.027 15.7258L195.794 15.7075C196.675 15.6378 197.427 15.4506 198.051 15.1423C198.671 14.8341 199.149 14.39 199.479 13.8102C199.809 13.2304 199.974 12.5038 199.974 11.6341C199.974 10.8561 199.857 10.1992 199.618 9.66711C199.38 9.135 199.042 8.70931 198.598 8.39739C198.158 8.08546 197.633 7.85427 197.02 7.70748C196.411 7.56069 195.739 7.49097 195.009 7.49097H183.112V19.3699H186.649V15.9203H191.16L195.427 19.3699H199.868L195.967 16.3056L195.027 15.7258ZM186.649 13.2708V10.5185H194.66C195.251 10.5185 195.677 10.6176 195.934 10.8157C196.191 11.0139 196.316 11.3772 196.316 11.913C196.316 12.4011 196.187 12.7497 195.934 12.9589C195.677 13.168 195.255 13.2708 194.66 13.2708H186.649Z" fill="white"/>
<path d="M195.427 19.3661L191.16 15.9165H186.649V19.3661H183.112V7.48718H195.009C195.736 7.48718 196.415 7.56058 197.02 7.7037C197.626 7.84681 198.158 8.08168 198.598 8.39361C199.038 8.70553 199.38 9.13489 199.618 9.667C199.853 10.1991 199.974 10.8597 199.974 11.634C199.974 12.5 199.805 13.234 199.479 13.8101C199.149 14.3899 198.668 14.8376 198.051 15.1422C197.435 15.4468 196.675 15.6376 195.794 15.7074L195.031 15.7257L195.971 16.2982L199.871 19.3624L195.427 19.3661ZM183.112 7.48718V19.3661H186.646V15.9165H191.16L195.427 19.3661H199.868L195.967 16.3019L195.027 15.7257L195.794 15.7074C196.671 15.6376 197.431 15.4468 198.051 15.1422C198.671 14.8376 199.149 14.3863 199.479 13.8101C199.809 13.234 199.974 12.5 199.974 11.634C199.974 10.8597 199.853 10.1991 199.618 9.667C199.38 9.13489 199.038 8.7092 198.598 8.39727C198.158 8.08535 197.629 7.85415 197.02 7.70737C196.411 7.56425 195.736 7.49085 195.009 7.49085H183.112V7.48718ZM194.66 13.2707H186.646V10.5184H194.66C195.251 10.5184 195.677 10.6175 195.934 10.8156C196.187 11.0138 196.319 11.3808 196.319 11.9129C196.319 12.3973 196.191 12.7496 195.934 12.9587C195.681 13.1642 195.251 13.2707 194.66 13.2707ZM186.649 13.2707H194.66C195.251 13.2707 195.677 13.1642 195.93 12.9587C196.183 12.7496 196.316 12.3973 196.316 11.9129C196.316 11.3808 196.187 11.0138 195.93 10.8156C195.677 10.6175 195.248 10.5184 194.66 10.5184H186.649V13.2707Z" fill="white"/>
<path d="M144.323 13.3076C144.341 12.4231 144.477 11.6305 144.745 10.9332C145.031 10.1883 145.446 9.55709 145.989 9.04333C146.532 8.52957 147.196 8.13691 147.982 7.86535C148.767 7.59379 149.659 7.45801 150.66 7.45801H161.497V10.5259H151.027C150.004 10.5259 149.218 10.7754 148.664 11.2709C148.125 11.7553 147.853 12.4709 147.838 13.414C147.853 14.3571 148.125 15.0727 148.664 15.5571C149.218 16.0525 150.007 16.302 151.027 16.302H161.497V19.3699H150.66C149.659 19.3699 148.767 19.2342 147.982 18.9626C147.196 18.691 146.532 18.2984 145.989 17.7846C145.446 17.2709 145.031 16.6397 144.745 15.8947C144.477 15.1975 144.341 14.4048 144.323 13.5204V13.3076Z" fill="white"/>
<path d="M150.66 19.366C149.662 19.366 148.763 19.2303 147.982 18.9587C147.2 18.6908 146.528 18.2908 145.989 17.7807C145.449 17.2706 145.031 16.6358 144.745 15.8908C144.484 15.2082 144.341 14.4082 144.323 13.5165V13.3073C144.341 12.4156 144.481 11.6156 144.745 10.933C145.027 10.1917 145.446 9.55686 145.989 9.0431C146.528 8.53301 147.2 8.13668 147.982 7.86512C148.763 7.59356 149.662 7.45778 150.66 7.45778H161.497V10.5257H151.027C150.011 10.5257 149.215 10.7752 148.664 11.2706C148.132 11.7477 147.853 12.467 147.838 13.4101C147.853 14.3532 148.132 15.0725 148.664 15.5495C149.215 16.0449 150.011 16.2945 151.027 16.2945H161.497V19.3624L150.66 19.366ZM144.323 13.3073V13.5165C144.341 14.4082 144.481 15.2082 144.745 15.8908C145.027 16.6321 145.446 17.267 145.989 17.777C146.528 18.2908 147.2 18.6871 147.982 18.955C148.763 19.2266 149.662 19.3624 150.66 19.3624H161.497V16.2945H151.027C150.011 16.2945 149.215 16.0449 148.66 15.5495C148.128 15.0725 147.849 14.3495 147.835 13.4064C147.849 12.4633 148.128 11.744 148.66 11.2633C149.211 10.7679 150.007 10.5183 151.027 10.5183H161.497V7.45044H150.66C149.662 7.45044 148.763 7.58622 147.982 7.85778C147.2 8.12934 146.528 8.52567 145.989 9.03576C145.449 9.54585 145.031 10.1807 144.745 10.922C144.484 11.6156 144.341 12.4156 144.323 13.3073Z" fill="white"/>
<path d="M49.5082 26.4376V26.5917L46.3596 31.2083H45.3247L48.6458 26.4376H49.5082ZM51.7687 30.1184H46.7119V29.5018H51.7687V30.1184ZM52.0623 31.2083L48.9064 26.5917L48.9137 26.4376H49.7724L53.0935 31.2083H52.0623Z" fill="white"/>
<path d="M59.6183 28.7239V26.4376H60.4733V28.878C60.4733 29.4321 60.3412 29.8872 60.0733 30.2395C59.8091 30.5918 59.4275 30.8523 58.932 31.0248C58.4366 31.1973 57.8495 31.2853 57.1632 31.2853C56.4807 31.2853 55.8935 31.1973 55.3981 31.0248C54.9027 30.8523 54.521 30.5881 54.2531 30.2395C53.9889 29.8872 53.8531 29.4321 53.8531 28.878V26.4376H54.7082V28.7239C54.7082 29.1385 54.7963 29.4798 54.9687 29.7514C55.1449 30.0229 55.4128 30.2211 55.7761 30.3495C56.1394 30.478 56.6018 30.5404 57.1596 30.5404C57.7174 30.5404 58.1798 30.478 58.5394 30.3495C58.899 30.2211 59.1706 30.0229 59.3467 29.7514C59.5265 29.4835 59.6183 29.1385 59.6183 28.7239Z" fill="white"/>
<path d="M64.6568 27.1716H61.7834V26.4376H68.3853V27.1716H65.5119V31.2083H64.6568V27.1716Z" fill="white"/>
<path d="M73.3797 31.2927C72.5174 31.2927 71.8091 31.2046 71.255 31.0322C70.7009 30.856 70.2898 30.5881 70.022 30.2248C69.7541 29.8615 69.6183 29.3955 69.6183 28.8267C69.6183 28.2542 69.7541 27.7844 70.022 27.4248C70.2898 27.0652 70.7009 26.7936 71.255 26.6211C71.8091 26.445 72.5174 26.3606 73.3797 26.3606C74.2385 26.3606 74.9431 26.4487 75.5008 26.6211C76.055 26.7973 76.4697 27.0652 76.7375 27.4248C77.0091 27.7881 77.1449 28.2542 77.1449 28.8267C77.1449 29.3955 77.0091 29.8615 76.7375 30.2248C76.466 30.5881 76.055 30.8597 75.5008 31.0322C74.9431 31.2046 74.2385 31.2927 73.3797 31.2927ZM73.3797 30.5514C73.9192 30.5514 74.3779 30.5184 74.7486 30.4487C75.1192 30.3826 75.4164 30.2762 75.6403 30.1331C75.8642 29.99 76.0256 29.8101 76.1247 29.5936C76.2238 29.3771 76.2752 29.1202 76.2752 28.8193C76.2752 28.5147 76.2238 28.2578 76.1247 28.0413C76.0256 27.8285 75.8642 27.6487 75.6403 27.5055C75.4164 27.3624 75.1192 27.2597 74.7486 27.19C74.3779 27.1239 73.9229 27.0872 73.3797 27.0872C72.6568 27.0872 72.0843 27.1459 71.6587 27.2707C71.233 27.3918 70.9284 27.5789 70.7449 27.8322C70.5614 28.0854 70.4697 28.4156 70.4697 28.8156C70.4697 29.2156 70.5614 29.5459 70.7449 29.7991C70.9284 30.0523 71.233 30.2395 71.6587 30.3606C72.0843 30.489 72.6568 30.5514 73.3797 30.5514Z" fill="white"/>
<path d="M79.5449 31.2083H78.6898V26.4376H79.732L83.0531 30.5037L86.3742 26.4376H87.4018V31.2083H86.5467V27.4505L83.4678 31.2083H82.6091L79.5375 27.4505V31.2083H79.5449Z" fill="white"/>
<path d="M93.0421 31.2927C92.1797 31.2927 91.4715 31.2046 90.9173 31.0322C90.3632 30.856 89.9522 30.5881 89.6843 30.2248C89.4164 29.8615 89.2806 29.3955 89.2806 28.8267C89.2806 28.2542 89.4164 27.7844 89.6843 27.4248C89.9522 27.0652 90.3632 26.7936 90.9173 26.6211C91.4715 26.445 92.1797 26.3606 93.0421 26.3606C93.9008 26.3606 94.6054 26.4487 95.1632 26.6211C95.7173 26.7973 96.132 27.0652 96.3999 27.4248C96.6715 27.7881 96.8072 28.2542 96.8072 28.8267C96.8072 29.3955 96.6715 29.8615 96.3999 30.2248C96.1283 30.5881 95.7173 30.8597 95.1632 31.0322C94.6054 31.2046 93.8972 31.2927 93.0421 31.2927ZM93.0421 30.5514C93.5816 30.5514 94.0403 30.5184 94.4109 30.4487C94.7815 30.3826 95.0788 30.2762 95.3027 30.1331C95.5265 29.99 95.688 29.8101 95.7871 29.5936C95.8861 29.3771 95.9375 29.1202 95.9375 28.8193C95.9375 28.5147 95.8861 28.2578 95.7871 28.0413C95.688 27.8285 95.5265 27.6487 95.3027 27.5055C95.0788 27.3624 94.7815 27.2597 94.4109 27.19C94.0403 27.1239 93.5852 27.0872 93.0421 27.0872C92.3192 27.0872 91.7467 27.1459 91.321 27.2707C90.8953 27.3918 90.5907 27.5789 90.4072 27.8322C90.2238 28.0854 90.132 28.4156 90.132 28.8156C90.132 29.2156 90.2238 29.5459 90.4072 29.7991C90.5907 30.0523 90.8953 30.2395 91.321 30.3606C91.743 30.489 92.3192 30.5514 93.0421 30.5514Z" fill="white"/>
<path d="M100.914 27.1716H98.0403V26.4376H104.642V27.1716H101.769V31.2083H100.914V27.1716Z" fill="white"/>
<path d="M106.84 31.2083H105.985V26.4376H106.84V31.2083Z" fill="white"/>
<path d="M111.358 31.2083L108.077 26.4376H109.119L111.93 30.5073L114.734 26.4376H115.754L112.481 31.2083H111.358Z" fill="white"/>
<path d="M123.666 31.2083H117.49V26.4376H123.666V27.1239H118.341V28.489H123.53V29.0688H118.341V30.5257H123.666V31.2083Z" fill="white"/>
<path d="M134.374 31.2083H128.198V26.4376H134.374V27.1239H129.049V28.489H134.238V29.0688H129.049V30.5257H134.374V31.2083Z" fill="white"/>
<path d="M147.582 31.2927C146.719 31.2927 146.011 31.2046 145.457 31.0322C144.903 30.856 144.492 30.5881 144.224 30.2248C143.956 29.8615 143.82 29.3955 143.82 28.8267C143.82 28.2542 143.956 27.7844 144.224 27.4248C144.492 27.0652 144.903 26.7936 145.457 26.6211C146.011 26.445 146.719 26.3606 147.582 26.3606C148.44 26.3606 149.145 26.4487 149.703 26.6211C150.257 26.7973 150.671 27.0652 150.939 27.4248C151.211 27.7881 151.347 28.2542 151.347 28.8267C151.347 29.3955 151.211 29.8615 150.939 30.2248C150.668 30.5881 150.257 30.8597 149.703 31.0322C149.145 31.2046 148.44 31.2927 147.582 31.2927ZM147.582 30.5514C148.121 30.5514 148.58 30.5184 148.95 30.4487C149.321 30.3826 149.618 30.2762 149.842 30.1331C150.066 29.99 150.227 29.8101 150.326 29.5936C150.426 29.3771 150.477 29.1202 150.477 28.8193C150.477 28.5147 150.426 28.2578 150.326 28.0413C150.227 27.8285 150.066 27.6487 149.842 27.5055C149.618 27.3624 149.321 27.2597 148.95 27.19C148.58 27.1239 148.125 27.0872 147.582 27.0872C146.859 27.0872 146.286 27.1459 145.86 27.2707C145.435 27.3918 145.13 27.5789 144.947 27.8322C144.763 28.0854 144.671 28.4156 144.671 28.8156C144.671 29.2156 144.763 29.5459 144.947 29.7991C145.13 30.0523 145.435 30.2395 145.86 30.3606C146.286 30.489 146.859 30.5514 147.582 30.5514Z" fill="white"/>
<path d="M158.991 29.9422C158.991 30.1808 158.943 30.3826 158.851 30.5551C158.76 30.7239 158.598 30.867 158.374 30.9734C158.15 31.0835 157.849 31.1643 157.468 31.2156C157.086 31.267 156.609 31.2927 156.037 31.2927C155.673 31.2927 155.292 31.278 154.892 31.2487C154.492 31.2193 154.11 31.1753 153.743 31.1239C153.376 31.0689 153.057 31.0138 152.782 30.9514L152.899 30.2505C153.123 30.3019 153.369 30.3496 153.633 30.39C153.897 30.4303 154.18 30.4707 154.473 30.5037C154.767 30.5367 155.06 30.5624 155.358 30.5808C155.655 30.5991 155.945 30.6101 156.227 30.6101C156.638 30.6101 156.969 30.5991 157.226 30.5734C157.479 30.5478 157.677 30.5074 157.813 30.456C157.952 30.401 158.044 30.3312 158.095 30.2432C158.147 30.1551 158.172 30.0487 158.172 29.9276C158.172 29.7514 158.136 29.6193 158.066 29.5312C157.996 29.4432 157.893 29.3808 157.758 29.3404C157.622 29.3 157.453 29.2707 157.255 29.2523L154.532 29.0138C154.125 28.9844 153.787 28.9257 153.515 28.834C153.244 28.7422 153.038 28.6101 152.903 28.4303C152.767 28.2542 152.701 28.0193 152.701 27.7221C152.701 27.3955 152.796 27.1312 152.987 26.9331C153.178 26.7312 153.49 26.5881 153.923 26.4964C154.356 26.4046 154.928 26.3606 155.644 26.3606C155.875 26.3606 156.128 26.3679 156.396 26.3863C156.664 26.401 156.939 26.423 157.222 26.4523C157.504 26.4817 157.776 26.5111 158.04 26.5514C158.304 26.5881 158.547 26.6322 158.763 26.6762L158.624 27.3404C158.422 27.3 158.194 27.2597 157.938 27.2267C157.681 27.19 157.409 27.1606 157.127 27.1349C156.84 27.1092 156.558 27.0872 156.275 27.0725C155.993 27.0578 155.725 27.0468 155.468 27.0468C155.057 27.0468 154.723 27.0578 154.462 27.0762C154.202 27.0982 154.004 27.1349 153.868 27.19C153.732 27.245 153.637 27.3111 153.585 27.3955C153.534 27.4799 153.508 27.5826 153.508 27.7037C153.508 27.8578 153.545 27.9753 153.622 28.056C153.695 28.1367 153.805 28.1955 153.952 28.2285C154.099 28.2615 154.279 28.2909 154.495 28.3202L157.145 28.5441C157.435 28.5661 157.692 28.6065 157.923 28.6615C158.15 28.7166 158.345 28.7973 158.499 28.9037C158.653 29.0101 158.774 29.1459 158.855 29.3111C158.95 29.4799 158.991 29.689 158.991 29.9422Z" fill="white"/>
<path d="M163.105 29.3184L159.886 26.4376H160.998L163.538 28.6688L166.077 26.4376H167.174L163.956 29.3257V31.2083H163.105V29.3184Z" fill="white"/>
<path d="M174.176 29.9422C174.176 30.1808 174.128 30.3826 174.037 30.5551C173.945 30.7239 173.783 30.867 173.56 30.9734C173.336 31.0835 173.035 31.1643 172.653 31.2156C172.272 31.267 171.794 31.2927 171.222 31.2927C170.859 31.2927 170.477 31.278 170.077 31.2487C169.677 31.2193 169.295 31.1753 168.928 31.1239C168.561 31.0689 168.242 31.0138 167.967 30.9514L168.084 30.2505C168.308 30.3019 168.554 30.3496 168.818 30.39C169.083 30.4303 169.365 30.4707 169.659 30.5037C169.952 30.5367 170.246 30.5624 170.543 30.5808C170.84 30.5991 171.13 30.6101 171.413 30.6101C171.824 30.6101 172.154 30.5991 172.411 30.5734C172.668 30.5478 172.862 30.5074 172.998 30.456C173.138 30.401 173.229 30.3312 173.281 30.2432C173.332 30.1551 173.358 30.0487 173.358 29.9276C173.358 29.7514 173.321 29.6193 173.251 29.5312C173.182 29.4432 173.079 29.3808 172.943 29.3404C172.807 29.3 172.639 29.2707 172.44 29.2523L169.717 29.0138C169.31 28.9844 168.972 28.9257 168.701 28.834C168.429 28.7422 168.224 28.6101 168.088 28.4303C167.952 28.2542 167.886 28.0193 167.886 27.7221C167.886 27.3955 167.982 27.1312 168.172 26.9331C168.363 26.7312 168.675 26.5881 169.108 26.4964C169.541 26.4046 170.114 26.3606 170.829 26.3606C171.064 26.3606 171.314 26.3679 171.582 26.3863C171.85 26.401 172.125 26.423 172.407 26.4523C172.69 26.4817 172.961 26.5111 173.226 26.5514C173.49 26.5881 173.732 26.6322 173.949 26.6762L173.809 27.3404C173.607 27.3 173.38 27.2597 173.123 27.2267C172.866 27.19 172.594 27.1606 172.312 27.1349C172.026 27.1092 171.743 27.0872 171.461 27.0725C171.178 27.0578 170.91 27.0468 170.653 27.0468C170.242 27.0468 169.908 27.0578 169.648 27.0762C169.387 27.0982 169.189 27.1349 169.053 27.19C168.917 27.245 168.822 27.3111 168.771 27.3955C168.719 27.4799 168.694 27.5826 168.694 27.7037C168.694 27.8578 168.73 27.9753 168.807 28.056C168.881 28.1367 168.991 28.1955 169.138 28.2285C169.284 28.2615 169.464 28.2909 169.681 28.3202L172.33 28.5441C172.62 28.5661 172.877 28.6065 173.108 28.6615C173.339 28.7166 173.53 28.7973 173.684 28.9037C173.839 29.0101 173.96 29.1459 174.04 29.3111C174.136 29.4799 174.176 29.689 174.176 29.9422Z" fill="white"/>
<path d="M178.205 27.1716H175.332V26.4376H181.934V27.1716H179.06V31.2083H178.205V27.1716Z" fill="white"/>
<path d="M189.453 31.2083H183.277V26.4376H189.453V27.1239H184.128V28.489H189.317V29.0688H184.128V30.5257H189.453V31.2083Z" fill="white"/>
<path d="M192.018 31.2083H191.163V26.4376H192.205L195.527 30.5037L198.848 26.4376H199.875V31.2083H199.02V27.4505L195.941 31.2083H195.082L192.011 27.4505V31.2083H192.018Z" fill="white"/>
<path d="M136.264 30.5734C136.477 30.7752 136.741 30.9294 137.053 31.0395C137.376 31.1496 137.75 31.2083 138.172 31.2083H142.811V30.5184H138.341C137.78 30.5184 137.328 30.3716 137.005 30.0817C136.679 29.7918 136.514 29.3697 136.503 28.8266C136.51 28.2725 136.679 27.8505 137.005 27.5606C137.167 27.4174 137.358 27.3074 137.582 27.234H137.585C137.809 27.1606 138.059 27.1239 138.341 27.1239H142.811V26.434H138.172C137.754 26.434 137.376 26.489 137.053 26.6028C136.741 26.7092 136.477 26.867 136.264 27.0652C136.176 27.1459 136.103 27.245 136.033 27.3441C136.018 27.3624 136 27.3808 135.985 27.3991C135.905 27.5239 135.835 27.656 135.78 27.8028C135.673 28.078 135.618 28.4046 135.611 28.7716V28.8633C135.618 29.2266 135.677 29.5532 135.78 29.8285C135.89 30.1294 136.055 30.3789 136.264 30.5734Z" fill="white"/>
<path d="M28.7046 18.867C24.2606 28.6468 18.9541 33.0578 18.2239 33.1092C17.4202 33.0578 11.0826 27.2927 7.06791 17.5753C10.3303 16.867 14.4734 16.5257 18.4441 16.5257C20.5101 16.5257 22.5285 16.6798 24.4587 16.845C25.0019 15.4285 25.4606 14.111 25.9193 12.2652C23.556 12.0046 21.0716 11.7918 18.4367 11.7918C13.8716 11.7918 9.37617 12.2101 5.76883 12.9404C5.23305 11.1679 4.74497 9.58993 4.43671 6.867C8.23488 6.01195 13.134 5.38443 18.1064 5.38443C21.3064 5.38443 24.5725 5.54223 27.3945 5.96791C27.6587 4.5147 27.7982 3.30369 27.8863 1.44681C24.9725 1.01379 21.6587 0.782593 18.2496 0.782593C11.1853 0.782593 4.75965 1.87984 0.447726 3.47984C0.400019 3.50186 0.12846 3.59727 0.113781 3.60461C-0.234843 24.1881 17.7028 37.8725 18.2312 38.4376C18.8184 37.8615 36.3927 24.5697 36.3927 3.62296L36.3119 3.57525C36.2459 3.5459 36.0147 3.45415 35.5963 3.30736C34.5431 2.92938 33.7431 2.72388 32.4808 2.41562C32.4808 2.41562 32.1505 7.1092 31.6771 9.47984C30.6129 14.7863 28.7046 18.867 28.7046 18.867Z" fill="white"/>
</g>
<defs>
<clipPath id="clip0_2807_1516">
<rect width="200" height="38.1651" fill="white" transform="translate(0 0.5)"/>
</clipPath>
</defs>
</svg>
