<svg width="17" height="30" viewBox="0 0 17 30" fill="none" xmlns="http://www.w3.org/2000/svg">
<path d="M1.08993 14.142C0.532035 14.6998 0.532036 15.6044 1.08993 16.1623C1.64782 16.7202 2.55234 16.7202 3.11023 16.1623L16.2422 3.03028C16.8001 2.47238 16.8001 1.56786 16.2422 1.00997C15.6843 0.45208 14.7798 0.45208 14.2219 1.00997L1.08993 14.142Z" fill="white"/>
<path d="M14.2219 29.2942C14.7798 29.8521 15.6843 29.8521 16.2422 29.2942C16.8001 28.7364 16.8001 27.8318 16.2422 27.2739L3.11023 14.142C2.55234 13.5841 1.64782 13.5841 1.08993 14.142C0.532035 14.6998 0.532036 15.6044 1.08993 16.1623L14.2219 29.2942Z" fill="white"/>
</svg>
