<svg width="17" height="30" viewBox="0 0 17 30" fill="none" xmlns="http://www.w3.org/2000/svg">
<path d="M15.9101 14.1422C16.468 14.7001 16.468 15.6046 15.9101 16.1625C15.3522 16.7204 14.4477 16.7204 13.8898 16.1625L0.757774 3.03052C0.199883 2.47263 0.199883 1.56811 0.757775 1.01022C1.31567 0.452324 2.22019 0.452324 2.77808 1.01022L15.9101 14.1422Z" fill="white"/>
<path d="M2.77808 29.2945C2.22019 29.8524 1.31567 29.8524 0.757775 29.2945C0.199882 28.7366 0.199883 27.8321 0.757775 27.2742L13.8898 14.1422C14.4477 13.5843 15.3522 13.5843 15.9101 14.1422C16.468 14.7001 16.468 15.6046 15.9101 16.1625L2.77808 29.2945Z" fill="white"/>
</svg>
