<svg width="30" height="31" viewBox="0 0 30 31" fill="none" xmlns="http://www.w3.org/2000/svg">
<path d="M15 19.6667C17.3013 19.6667 19.1667 17.8012 19.1667 15.5C19.1667 13.1988 17.3013 11.3333 15 11.3333C12.6987 11.3333 10.8333 13.1988 10.8333 15.5C10.8333 17.8012 12.6987 19.6667 15 19.6667Z" fill="white"/>
<path fill-rule="evenodd" clip-rule="evenodd" d="M9 2C4.85786 2 1.5 5.35786 1.5 9.5V21.5C1.5 25.6421 4.85786 29 9 29H21C25.1421 29 28.5 25.6421 28.5 21.5V9.5C28.5 5.35786 25.1421 2 21 2H9ZM24 6.5C24 7.32844 23.3284 8 22.5 8C21.6716 8 21 7.32844 21 6.5C21 5.67156 21.6716 5 22.5 5C23.3284 5 24 5.67156 24 6.5ZM15 23C19.1418 23 22.5 19.6421 22.5 15.5C22.5 11.3579 19.1418 8 15 8C10.8582 8 7.5 11.3579 7.5 15.5C7.5 19.6421 10.8582 23 15 23Z" fill="white"/>
</svg>
