<svg xmlns="http://www.w3.org/2000/svg" width="21" height="52" viewBox="0 0 21 52">
  <defs>
    <style>
      .cls-1 {
        fill-rule: evenodd;
      }
    </style>
  </defs>
  <path id="scroll" class="cls-1" d="M9.869,0.023c6.12-.111,9.773,3.608,10.925,8.509a17.808,17.808,0,0,1,.184,3.746V23.954a16.449,16.449,0,0,1-.436,4.763,10.464,10.464,0,0,1-6.931,7.029,23.229,23.229,0,0,1-2.639.462A5.083,5.083,0,0,1,9.2,36.116l-1.148-.185a10.709,10.709,0,0,1-7.78-7.884,17.036,17.036,0,0,1-.252-4.023V12.093A15.531,15.531,0,0,1,.39,7.723,10.607,10.607,0,0,1,6.472.809,12.634,12.634,0,0,1,8.561.185Zm0.138,2.012-0.849.092a11.183,11.183,0,0,0-1.721.462A8.6,8.6,0,0,0,2.318,8.254a13.669,13.669,0,0,0-.3,3.792V23.908A14.826,14.826,0,0,0,2.3,27.884a8.728,8.728,0,0,0,3.672,4.971,8.977,8.977,0,0,0,3.4,1.249,4.177,4.177,0,0,0,1.446.093,19.646,19.646,0,0,0,2.272-.393A8.574,8.574,0,0,0,18.5,28.532a12.616,12.616,0,0,0,.482-4.416V12.509a17.18,17.18,0,0,0-.115-3.4C17.935,4.957,15.065,2.032,10.007,2.035Zm-8.7,38.682a1.55,1.55,0,0,1,1.239.717L3.97,42.867l4.682,4.694,1.354,1.364a2.54,2.54,0,0,0,.62.6l7.161-7.237a8.572,8.572,0,0,1,1.607-1.5,1.067,1.067,0,0,1,1.171.3A1.182,1.182,0,0,1,20.7,42.15a2.309,2.309,0,0,1-.574.647L18.957,44l-5.784,5.8L11.7,51.283a1.9,1.9,0,0,1-.918.694,1.039,1.039,0,0,1-1.01-.416L8.033,49.8,1.79,43.538c-0.427-.43-1.814-1.432-1.216-2.358A1.568,1.568,0,0,1,1.308,40.717Zm9.18-30.682A1.076,1.076,0,0,1,11.5,11.26v5.8a1.021,1.021,0,0,1-.964,1.087,1.113,1.113,0,0,1-1.056-1.064c-0.006-.549-0.008-5.289,0-5.8A1.075,1.075,0,0,1,10.489,10.035Z"/>
</svg>
