<svg width="30" height="31" viewBox="0 0 30 31" fill="none" xmlns="http://www.w3.org/2000/svg">
<path fill-rule="evenodd" clip-rule="evenodd" d="M20.1269 24.181L21.6549 26C26.7482 25.9272 28.7127 22.5075 28.7127 22.5075C28.7127 14.9403 25.3657 8.90112 25.3657 8.90112C21.946 6.5 18.8172 6.5 18.8172 6.5L18.4534 6.79104C22.3098 7.8097 24.7836 9.77425 24.7109 9.84701C20.709 6.79104 10.5224 6.5 5.57469 9.84701C5.57469 9.84701 7.39372 7.95522 11.6139 6.79104L11.3956 6.5C11.3956 6.5 8.26685 6.5 4.84708 8.90112C4.84708 8.90112 1.50006 14.9403 1.50006 22.5075C1.50006 22.5075 3.46461 25.9272 8.5579 26L10.2314 24.181C7.17543 23.2351 6.15678 21.3433 6.15678 21.3433C10.1586 25.0541 20.4907 24.9086 24.2743 21.3433C24.2743 21.3433 23.1101 23.3806 20.1269 24.181ZM10.741 20.3246C12.0671 20.3246 13.1421 19.1845 13.1421 17.778C13.1421 16.3715 12.0671 15.2313 10.741 15.2313C9.41487 15.2313 8.33986 16.3715 8.33986 17.778C8.33986 19.1845 9.41487 20.3246 10.741 20.3246ZM19.1815 20.3246C20.5076 20.3246 21.5826 19.1845 21.5826 17.778C21.5826 16.3715 20.5076 15.2313 19.1815 15.2313C17.8554 15.2313 16.7804 16.3715 16.7804 17.778C16.7804 19.1845 17.8554 20.3246 19.1815 20.3246Z" fill="white"/>
</svg>
