<svg xmlns="http://www.w3.org/2000/svg" width="45" height="45" viewBox="0 0 45 45">
  <defs>
    <style>
      .cls-1 {
        fill-rule: evenodd;
      }
    </style>
  </defs>
  <path id="play" class="cls-1" d="M22.489,0.125A22.364,22.364,0,1,1,.125,22.489,22.364,22.364,0,0,1,22.489.125ZM22.542,1.8A20.694,20.694,0,1,1,1.848,22.489,20.694,20.694,0,0,1,22.542,1.8Zm3.621,20.066-4.484-3.874a0.971,0.971,0,0,0-1.654.683v7.7a0.966,0.966,0,0,0,1.654.683l4.484-3.824a0.953,0.953,0,0,0,0-1.366h0Z"/>
</svg>
