<svg width="200" height="38" viewBox="0 0 200 38" fill="none" xmlns="http://www.w3.org/2000/svg">
<g clip-path="url(#clip0_2807_1299)">
<path d="M44.7321 17.7603H48.2895V13.864H60.3172V11.0689H48.2895V8.87604H60.6466V5.83618H44.7321V17.7603Z" fill="white"/>
<path d="M77.0129 6.25976C75.5823 5.81742 73.7189 5.59155 71.432 5.59155C69.1544 5.59155 67.3004 5.81742 65.851 6.25976C64.4017 6.70209 63.3382 7.3797 62.6606 8.2926C61.983 9.2055 61.6348 10.3725 61.6348 11.8124C61.6348 13.2335 61.9736 14.4006 62.6606 15.3229C63.3382 16.2358 64.4111 16.9134 65.851 17.3557C67.3004 17.798 69.1544 18.0239 71.432 18.0239C73.7189 18.0239 75.5729 17.798 77.0129 17.3557C78.4434 16.9134 79.5069 16.2358 80.1939 15.3229C80.8809 14.41 81.2291 13.243 81.2291 11.8124C81.2291 10.3819 80.8809 9.2055 80.1939 8.2926C79.5163 7.3797 78.4528 6.70209 77.0129 6.25976ZM77.314 13.2618C77.1164 13.6665 76.787 13.9865 76.3164 14.2406C75.8459 14.4947 75.2153 14.6735 74.4153 14.7864C73.6154 14.8994 72.6272 14.9652 71.432 14.9652C69.832 14.9652 68.5803 14.8617 67.6768 14.6547C66.7734 14.4476 66.1334 14.1182 65.7569 13.6476C65.3805 13.1771 65.1922 12.5653 65.1922 11.7936C65.1922 11.0219 65.3805 10.4101 65.7569 9.93958C66.1334 9.46902 66.7734 9.13962 67.6768 8.93257C68.5803 8.72552 69.832 8.63141 71.432 8.63141C72.6178 8.63141 73.6154 8.68788 74.4153 8.80081C75.2153 8.91375 75.8459 9.09256 76.3164 9.34667C76.787 9.60078 77.1164 9.92076 77.314 10.3254C77.5117 10.7301 77.6152 11.2195 77.6152 11.803C77.6152 12.3677 77.5117 12.8571 77.314 13.2618Z" fill="white"/>
<path d="M97.7178 13.5253C98.339 13.2148 98.819 12.7724 99.1484 12.1889C99.4778 11.6054 99.6472 10.8808 99.6472 10.0055C99.6472 9.22437 99.5248 8.56558 99.2895 8.02913C99.0542 7.49268 98.706 7.06918 98.2637 6.74919C97.8214 6.42921 97.2943 6.20333 96.6826 6.06216C96.0709 5.92099 95.3932 5.8457 94.6592 5.8457H82.7162V17.7698H86.2643V14.3065H90.7911L95.0733 17.7698H99.5342L95.6191 14.6923L94.678 14.1183L95.4497 14.0994C96.3344 14.0241 97.0873 13.8359 97.7178 13.5253ZM94.3109 11.6431H86.2643V8.87615H94.3109C94.9038 8.87615 95.3274 8.97967 95.5909 9.17731C95.845 9.37495 95.9767 9.74199 95.9767 10.2784C95.9767 10.7678 95.845 11.116 95.5909 11.3231C95.3368 11.5396 94.9038 11.6431 94.3109 11.6431Z" fill="white"/>
<path d="M112.691 14.8428L105.557 5.83618H101.238V17.7603H104.786V10.0525L110.856 17.7603H114.442L120.503 10.0525V17.7603H124.06V5.83618H119.806L112.691 14.8428Z" fill="white"/>
<path d="M136.172 5.83618H133.603H132.521L124.756 17.7603H129.02L130.46 15.4546H139.269L140.709 17.7603H145.01L137.245 5.83618H136.172ZM132.003 12.9888L134.864 8.40547L137.725 12.9888H132.003Z" fill="white"/>
<path d="M173.507 5.83618H170.938H169.856L162.091 17.7603H166.355L167.794 15.4546H176.603L178.043 17.7603H182.344L174.58 5.83618H173.507ZM169.347 12.9888L172.208 8.40547L175.069 12.9888H169.347Z" fill="white"/>
<path d="M195.04 14.1088L195.812 14.09C196.697 14.0241 197.45 13.8265 198.08 13.5253C198.701 13.2148 199.181 12.7724 199.511 12.1889C199.84 11.6054 200.009 10.8808 200.009 10.0055C200.009 9.22437 199.887 8.56558 199.652 8.02913C199.417 7.49268 199.068 7.06918 198.626 6.74919C198.184 6.42921 197.657 6.20333 197.045 6.06216C196.433 5.92099 195.756 5.8457 195.021 5.8457H183.078V17.7698H186.627V14.3065H191.153L195.436 17.7698H199.897L195.981 14.6923L195.04 14.1088ZM186.627 11.6431V8.87615H194.673C195.266 8.87615 195.69 8.97967 195.953 9.17731C196.207 9.37495 196.339 9.74199 196.339 10.2784C196.339 10.7678 196.207 11.116 195.953 11.3231C195.699 11.5301 195.276 11.6337 194.673 11.6337H186.627V11.6431Z" fill="white"/>
<path d="M144.134 11.6806C144.153 10.796 144.285 9.99601 144.558 9.29957C144.84 8.55608 145.264 7.91611 145.81 7.4079C146.355 6.89027 147.024 6.495 147.814 6.22207C148.605 5.94914 149.499 5.81738 150.506 5.81738H161.385V8.89489H150.873C149.847 8.89489 149.057 9.13958 148.501 9.63838C147.965 10.1278 147.692 10.843 147.673 11.7842C147.692 12.7253 147.965 13.45 148.501 13.9299C149.057 14.4287 149.847 14.6734 150.873 14.6734H161.385V17.7509H150.487C149.48 17.7509 148.586 17.6192 147.795 17.3463C147.005 17.0733 146.337 16.678 145.791 16.1604C145.245 15.6428 144.831 15.0122 144.539 14.2687C144.276 13.5723 144.134 12.7723 144.116 11.8877V11.6806H144.134Z" fill="white"/>
<path d="M27.961 18.1745C23.613 27.7364 18.4274 32.0468 17.7121 32.1032C16.9216 32.0468 10.7289 26.4188 6.8044 16.9133C9.99484 16.2169 14.0417 15.8875 17.9286 15.8875C19.952 15.8875 21.919 16.0381 23.8107 16.1981C24.3471 14.8146 24.7894 13.5253 25.2412 11.7183C22.926 11.4642 20.4979 11.2571 17.9286 11.2571C13.4676 11.2571 9.07253 11.6618 5.54328 12.3771C5.01625 10.6548 4.53627 9.11136 4.23511 6.44796C7.94317 5.61035 12.7429 4.99861 17.5992 4.99861C20.7237 4.99861 23.9236 5.1586 26.6811 5.5727C26.9446 4.15159 27.0764 2.96577 27.1611 1.14938C24.3095 0.725872 21.072 0.5 17.7309 0.5C10.8324 0.5 4.54568 1.57289 0.32941 3.13517C0.282353 3.15399 0.0188363 3.24811 0.00942494 3.25752C-0.329383 23.3789 17.2039 36.7618 17.7215 37.3077C18.2956 36.743 35.4807 23.7554 35.4807 3.27634L35.4054 3.22928C35.3395 3.20105 35.1137 3.10694 34.709 2.96577C33.6737 2.59872 32.8926 2.39168 31.6597 2.09051C31.6597 2.09051 31.3397 6.68324 30.8691 8.99842C29.8245 14.1935 27.961 18.1745 27.961 18.1745Z" fill="white"/>
<path d="M51.6023 33.6278H44.7321V25.9387H51.6023C52.3364 25.9387 52.9858 26.0046 53.5411 26.1458C54.0963 26.2869 54.5669 26.5034 54.9528 26.7952C55.3386 27.0963 55.621 27.4822 55.8186 27.9716C56.0068 28.461 56.1103 29.0539 56.1103 29.7691C56.1103 30.4844 56.0162 31.0867 55.8186 31.5761C55.621 32.0655 55.3386 32.4608 54.9528 32.7619C54.5763 33.0631 54.1057 33.2796 53.5411 33.4113C52.9764 33.5619 52.3364 33.6278 51.6023 33.6278ZM46.1155 27.1245V32.4514H51.48C52.2517 32.4514 52.8729 32.3667 53.3434 32.1878C53.814 32.009 54.1528 31.7267 54.3598 31.3408C54.5669 30.9455 54.6798 30.4279 54.6798 29.788C54.6798 29.1292 54.5763 28.6115 54.3598 28.2351C54.1528 27.8492 53.8046 27.5763 53.3434 27.3975C52.8729 27.2281 52.2517 27.134 51.48 27.134H46.1155V27.1245Z" fill="white"/>
<path d="M73.0601 33.6278H63.1029V25.9387H73.0601V27.0398H64.477V29.2421H72.8436V30.1738H64.477V32.5172H73.0601V33.6278Z" fill="white"/>
<path d="M90.1135 31.5856C90.1135 31.9714 90.0382 32.3008 89.8876 32.5738C89.737 32.8467 89.4829 33.0726 89.1253 33.2514C88.7677 33.4302 88.2783 33.5619 87.6666 33.6372C87.0548 33.7219 86.2831 33.7596 85.3608 33.7596C84.7773 33.7596 84.1561 33.7314 83.5162 33.6843C82.8762 33.6372 82.255 33.5714 81.6715 33.4772C81.0786 33.3925 80.561 33.2984 80.1187 33.2043L80.3069 32.075C80.6645 32.1597 81.0598 32.235 81.4927 32.3008C81.9256 32.3667 82.368 32.4326 82.848 32.4796C83.3185 32.5361 83.7985 32.5738 84.2785 32.602C84.7585 32.6302 85.2196 32.6491 85.6808 32.6491C86.3396 32.6491 86.876 32.6302 87.2901 32.5832C87.7042 32.5455 88.0148 32.4796 88.2406 32.3949C88.4665 32.3102 88.6171 32.1973 88.7018 32.0467C88.7865 31.9056 88.8241 31.7362 88.8241 31.5385C88.8241 31.2562 88.7677 31.0397 88.6547 30.8985C88.5418 30.7574 88.3724 30.6539 88.1559 30.5974C87.9395 30.5315 87.6665 30.4844 87.3466 30.4562L82.9609 30.0703C82.3115 30.0233 81.7562 29.9292 81.3233 29.7786C80.881 29.628 80.5516 29.4116 80.3351 29.1292C80.1187 28.8469 80.0057 28.461 80.0057 27.9904C80.0057 27.4634 80.1563 27.0399 80.4669 26.7199C80.7775 26.3999 81.2763 26.1647 81.9821 26.0141C82.6786 25.8635 83.6103 25.7976 84.7585 25.7976C85.1349 25.7976 85.5396 25.807 85.9725 25.8353C86.4054 25.8635 86.8478 25.9011 87.2995 25.9388C87.7513 25.9858 88.1936 26.0329 88.6171 26.0988C89.0406 26.1552 89.4265 26.2305 89.7841 26.3058L89.5582 27.3787C89.2382 27.3128 88.8712 27.247 88.4571 27.1905C88.043 27.134 87.6101 27.087 87.1489 27.0399C86.6878 27.0023 86.236 26.9646 85.7749 26.9364C85.3231 26.9081 84.8902 26.8987 84.4761 26.8987C83.8173 26.8987 83.2715 26.9176 82.8574 26.9458C82.4433 26.974 82.1233 27.0399 81.8974 27.1246C81.6715 27.2093 81.521 27.3222 81.4363 27.454C81.3516 27.5858 81.3139 27.7552 81.3139 27.9528C81.3139 28.1975 81.3704 28.3951 81.4927 28.5269C81.6151 28.6587 81.7939 28.7528 82.0292 28.7998C82.2645 28.8563 82.5562 28.9033 82.9044 28.9504L87.1772 29.308C87.6477 29.3457 88.0618 29.4116 88.4289 29.4963C88.7959 29.5904 89.1065 29.7127 89.3606 29.8821C89.6147 30.0515 89.8029 30.268 89.9347 30.5409C90.0476 30.8421 90.1135 31.1809 90.1135 31.5856Z" fill="white"/>
<path d="M98.5271 33.6278H97.1531V25.9387H98.5271V33.6278Z" fill="white"/>
<path d="M105.539 29.7786C105.539 29.1104 105.652 28.5269 105.868 28.0281C106.084 27.5293 106.423 27.1246 106.875 26.7952C107.327 26.4658 107.92 26.2211 108.635 26.0611C109.35 25.9011 110.216 25.8164 111.214 25.8164C111.807 25.8164 112.409 25.8446 113.021 25.9105C113.632 25.967 114.225 26.0517 114.809 26.1552C115.383 26.2587 115.919 26.3717 116.399 26.4846L116.136 27.6422C115.703 27.5481 115.223 27.4446 114.677 27.3505C114.131 27.2563 113.557 27.1716 112.955 27.1058C112.352 27.0399 111.741 27.0022 111.119 27.0022C110.32 27.0022 109.642 27.0587 109.096 27.1716C108.56 27.2846 108.127 27.454 107.807 27.6893C107.487 27.9151 107.261 28.2069 107.12 28.5551C106.979 28.9033 106.913 29.308 106.913 29.7692C106.913 30.2397 106.979 30.6538 107.12 31.002C107.261 31.3503 107.487 31.6326 107.807 31.8679C108.127 32.0938 108.56 32.2726 109.096 32.3855C109.642 32.4984 110.31 32.5549 111.119 32.5549C111.581 32.5549 112.032 32.5361 112.494 32.489C112.945 32.442 113.388 32.3855 113.821 32.329C114.253 32.2632 114.639 32.1973 114.978 32.1314V29.675H116.399V33.0914C115.919 33.2137 115.392 33.3266 114.809 33.4208C114.225 33.5243 113.632 33.5996 113.021 33.6655C112.409 33.7219 111.807 33.7596 111.214 33.7596C110.216 33.7596 109.35 33.6749 108.635 33.5149C107.92 33.3549 107.327 33.1102 106.875 32.7808C106.423 32.4514 106.084 32.0467 105.868 31.5479C105.642 31.0491 105.539 30.4562 105.539 29.7786Z" fill="white"/>
<path d="M124.898 33.6278H123.524V25.9387H125.105L132.991 32.1408V25.9387H134.366V33.6278H132.794L124.898 27.3787V33.6278Z" fill="white"/>
</g>
<defs>
<clipPath id="clip0_2807_1299">
<rect width="200" height="36.8077" fill="white" transform="translate(0 0.5)"/>
</clipPath>
</defs>
</svg>
