<svg xmlns="http://www.w3.org/2000/svg" xmlns:xlink="http://www.w3.org/1999/xlink"><symbol id="icon-arr-left" viewBox="0 0 17 30"><path d="M1.09 14.142a1.429 1.429 0 102.02 2.02L16.242 3.03a1.429 1.429 0 10-2.02-2.02L1.09 14.142z"/><path d="M14.222 29.294a1.429 1.429 0 102.02-2.02L3.11 14.142a1.429 1.429 0 10-2.02 2.02l13.132 13.132z"/></symbol><symbol id="icon-arr-right" viewBox="0 0 17 30"><path d="M15.91 14.142a1.429 1.429 0 11-2.02 2.02L.758 3.032a1.429 1.429 0 112.02-2.02L15.91 14.141z"/><path d="M2.778 29.294a1.429 1.429 0 11-2.02-2.02L13.89 14.142a1.429 1.429 0 112.02 2.02L2.778 29.296z"/></symbol><symbol id="icon-play" viewBox="0 0 7 11"><path d="M1.65 9.919A1 1 0 010 9.159V1.508a1 1 0 011.65-.76l4.464 3.826a1 1 0 010 1.519L1.651 9.919z"/></symbol><symbol id="icon-scroll" viewBox="0 0 22 53"><rect x="1.393" y="1.894" width="19" height="34" rx="9.5" stroke-width="2"/><rect x="9.893" y="10.894" width="2" height="8" rx="1"/><rect width="2" height="15" rx="1" transform="scale(1 -1) rotate(45 69.477 -13.222)"/><rect width="2" height="15" rx="1" transform="scale(-1 1) rotate(-45 40.37 47.278)"/></symbol><symbol id="icon-soc-fbk" viewBox="0 0 30 31"><path d="M17.7 7.1h3a.6.6 0 00.6-.6V2.458a.598.598 0 00-.555-.599c-.955-.067-2.82-.16-4.16-.16C12.9 1.7 10.5 3.909 10.5 7.922V11.9H6.3a.6.6 0 00-.6.6v4.2a.6.6 0 00.6.6h4.2v11.4a.6.6 0 00.6.6h4.2a.6.6 0 00.6-.6V17.3h4.333a.6.6 0 00.596-.534l.467-4.2a.6.6 0 00-.596-.666h-4.8v-3a1.8 1.8 0 011.8-1.8z"/></symbol><symbol id="icon-soc-ins" viewBox="0 0 30 31"><path d="M15 19.667a4.167 4.167 0 100-8.334 4.167 4.167 0 000 8.334z"/><path fill-rule="evenodd" clip-rule="evenodd" d="M9 2a7.5 7.5 0 00-7.5 7.5v12A7.5 7.5 0 009 29h12a7.5 7.5 0 007.5-7.5v-12A7.5 7.5 0 0021 2H9zm15 4.5a1.5 1.5 0 11-3 0 1.5 1.5 0 013 0zM15 23a7.5 7.5 0 100-15 7.5 7.5 0 000 15z"/></symbol><symbol id="icon-soc-mdm" viewBox="0 0 30 31"><path fill-rule="evenodd" clip-rule="evenodd" d="M15 2c7.456 0 13.5 6.044 13.5 13.5S22.456 29 15 29 1.5 22.956 1.5 15.5 7.544 2 15 2zm-3.966 8.405a5.095 5.095 0 110 10.19 5.095 5.095 0 010-10.19zm8.153.402c1.424 0 2.578 2.101 2.578 4.693 0 2.592-1.154 4.692-2.578 4.692s-2.578-2.1-2.578-4.692 1.154-4.693 2.578-4.693zm3.975.403c.496 0 .898 1.92.898 4.29s-.402 4.29-.898 4.29-.898-1.92-.898-4.29.402-4.29.898-4.29z"/></symbol><symbol id="icon-soc-tgm" viewBox="0 0 30 31"><path d="M24.087 5.068s2.428-.947 2.226 1.353c-.067.947-.674 4.26-1.147 7.845l-1.619 10.619s-.134 1.555-1.349 1.826c-1.214.27-3.035-.947-3.372-1.217-.27-.203-5.06-3.247-6.746-4.735-.472-.406-1.011-1.217.068-2.164l7.082-6.763c.81-.812 1.62-2.706-1.753-.406L8.033 17.85s-1.08.676-3.103.068L.546 16.566s-1.619-1.015 1.147-2.03c6.745-3.178 15.042-6.424 22.394-9.468z"/></symbol><symbol id="icon-soc-twt" viewBox="0 0 30 31"><path d="M22.805 3.313h4.135l-9.034 10.324 10.628 14.05h-8.322l-6.517-8.52-7.458 8.52H2.1l9.662-11.043L1.567 3.313H10.1l5.891 7.788 6.814-7.789zm-1.451 21.9h2.291L8.855 5.656H6.396l14.958 19.555z"/></symbol> <view id="icon-arr-left-view-grey" viewBox="0 0 17 30" preserveAspectRatio="none"/><view id="icon-arr-right-view-grey" viewBox="0 40 17 30" preserveAspectRatio="none"/><view id="icon-play-view-grey" viewBox="0 80 7 11" preserveAspectRatio="none"/><view id="icon-scroll-view-grey" viewBox="0 101 22 53" preserveAspectRatio="none"/><view id="icon-soc-fbk-view-grey" viewBox="0 164 30 31" preserveAspectRatio="none"/><view id="icon-soc-ins-view-grey" viewBox="0 205 30 31" preserveAspectRatio="none"/><view id="icon-soc-mdm-view-grey" viewBox="0 246 30 31" preserveAspectRatio="none"/><view id="icon-soc-tgm-view-grey" viewBox="0 287 30 31" preserveAspectRatio="none"/><view id="icon-soc-twt-view-grey" viewBox="0 328 30 31" preserveAspectRatio="none"/> <use xlink:href="#icon-arr-left" x="0" y="0" width="17" height="30" style="fill:#888888"/><use xlink:href="#icon-arr-right" x="0" y="40" width="17" height="30" style="fill:#888888"/><use xlink:href="#icon-play" x="0" y="80" width="7" height="11" style="fill:#888888"/><use xlink:href="#icon-scroll" x="0" y="101" width="22" height="53" style="fill:#888888"/><use xlink:href="#icon-soc-fbk" x="0" y="164" width="30" height="31" style="fill:#888888"/><use xlink:href="#icon-soc-ins" x="0" y="205" width="30" height="31" style="fill:#888888"/><use xlink:href="#icon-soc-mdm" x="0" y="246" width="30" height="31" style="fill:#888888"/><use xlink:href="#icon-soc-tgm" x="0" y="287" width="30" height="31" style="fill:#888888"/><use xlink:href="#icon-soc-twt" x="0" y="328" width="30" height="31" style="fill:#888888"/></svg>