<svg xmlns="http://www.w3.org/2000/svg" xmlns:xlink="http://www.w3.org/1999/xlink"><symbol id="icon-arr-left" viewBox="0 0 17 30"><path d="M1.09 14.142a1.429 1.429 0 102.02 2.02L16.242 3.03a1.429 1.429 0 10-2.02-2.02L1.09 14.142z"/><path d="M14.222 29.294a1.429 1.429 0 102.02-2.02L3.11 14.142a1.429 1.429 0 10-2.02 2.02l13.132 13.132z"/></symbol><symbol id="icon-arr-right" viewBox="0 0 17 30"><path d="M15.91 14.142a1.429 1.429 0 11-2.02 2.02L.758 3.032a1.429 1.429 0 112.02-2.02L15.91 14.141z"/><path d="M2.778 29.294a1.429 1.429 0 11-2.02-2.02L13.89 14.142a1.429 1.429 0 112.02 2.02L2.778 29.296z"/></symbol><symbol id="icon-play" viewBox="0 0 7 11"><path d="M1.65 9.919A1 1 0 010 9.159V1.508a1 1 0 011.65-.76l4.464 3.826a1 1 0 010 1.519L1.651 9.919z"/></symbol><symbol id="icon-scroll" viewBox="0 0 21 52"><path d="M9.869.023c6.12-.111 9.773 3.608 10.925 8.509a17.808 17.808 0 01.184 3.746v11.676a16.449 16.449 0 01-.436 4.763 10.464 10.464 0 01-6.931 7.029 23.229 23.229 0 01-2.639.462 5.083 5.083 0 01-1.772-.092l-1.148-.185a10.709 10.709 0 01-7.78-7.884 17.036 17.036 0 01-.252-4.023V12.093a15.531 15.531 0 01.37-4.37A10.607 10.607 0 016.472.809 12.634 12.634 0 018.561.185zm.138 2.012l-.849.092a11.183 11.183 0 00-1.721.462 8.6 8.6 0 00-5.119 5.665 13.669 13.669 0 00-.3 3.792v11.862a14.826 14.826 0 00.282 3.976 8.728 8.728 0 003.672 4.971 8.977 8.977 0 003.4 1.249 4.177 4.177 0 001.446.093 19.646 19.646 0 002.272-.393 8.574 8.574 0 005.41-5.272 12.616 12.616 0 00.482-4.416V12.509a17.18 17.18 0 00-.115-3.4c-.932-4.152-3.802-7.077-8.86-7.074zm-8.7 38.682a1.55 1.55 0 011.239.717l1.424 1.433 4.682 4.694 1.354 1.364a2.54 2.54 0 00.62.6l7.161-7.237a8.572 8.572 0 011.607-1.5 1.067 1.067 0 011.171.3 1.182 1.182 0 01.135 1.062 2.309 2.309 0 01-.574.647L18.957 44l-5.784 5.8-1.473 1.483a1.9 1.9 0 01-.918.694 1.039 1.039 0 01-1.01-.416L8.033 49.8 1.79 43.538c-.427-.43-1.814-1.432-1.216-2.358a1.568 1.568 0 01.734-.463zm9.18-30.682A1.076 1.076 0 0111.5 11.26v5.8a1.021 1.021 0 01-.964 1.087 1.113 1.113 0 01-1.056-1.064c-.006-.549-.008-5.289 0-5.8a1.075 1.075 0 011.009-1.248z" fill-rule="evenodd"/></symbol><symbol id="icon-soc-dsc" viewBox="0 0 30 31"><path fill-rule="evenodd" clip-rule="evenodd" d="M20.127 24.181L21.655 26c5.093-.073 7.058-3.492 7.058-3.492 0-7.568-3.347-13.607-3.347-13.607C21.946 6.5 18.817 6.5 18.817 6.5l-.364.291c3.857 1.019 6.33 2.983 6.258 3.056-4.002-3.056-14.189-3.347-19.136 0 0 0 1.819-1.892 6.039-3.056l-.218-.291s-3.13 0-6.549 2.401c0 0-3.347 6.04-3.347 13.607 0 0 1.965 3.42 7.058 3.492l1.673-1.819c-3.056-.946-4.074-2.838-4.074-2.838 4.002 3.711 14.334 3.566 18.117 0 0 0-1.164 2.038-4.147 2.838zm-9.386-3.856c1.326 0 2.401-1.14 2.401-2.547 0-1.406-1.075-2.547-2.401-2.547-1.326 0-2.401 1.14-2.401 2.547 0 1.407 1.075 2.547 2.401 2.547zm8.44 0c1.327 0 2.402-1.14 2.402-2.547 0-1.406-1.075-2.547-2.401-2.547-1.327 0-2.402 1.14-2.402 2.547 0 1.407 1.075 2.547 2.401 2.547z"/></symbol><symbol id="icon-soc-fbk" viewBox="0 0 30 31"><path d="M17.7 7.1h3a.6.6 0 00.6-.6V2.458a.598.598 0 00-.555-.599c-.955-.067-2.82-.16-4.16-.16C12.9 1.7 10.5 3.909 10.5 7.922V11.9H6.3a.6.6 0 00-.6.6v4.2a.6.6 0 00.6.6h4.2v11.4a.6.6 0 00.6.6h4.2a.6.6 0 00.6-.6V17.3h4.333a.6.6 0 00.596-.534l.467-4.2a.6.6 0 00-.596-.666h-4.8v-3a1.8 1.8 0 011.8-1.8z"/></symbol><symbol id="icon-soc-ins" viewBox="0 0 30 31"><path d="M15 19.667a4.167 4.167 0 100-8.334 4.167 4.167 0 000 8.334z"/><path fill-rule="evenodd" clip-rule="evenodd" d="M9 2a7.5 7.5 0 00-7.5 7.5v12A7.5 7.5 0 009 29h12a7.5 7.5 0 007.5-7.5v-12A7.5 7.5 0 0021 2H9zm15 4.5a1.5 1.5 0 11-3 0 1.5 1.5 0 013 0zM15 23a7.5 7.5 0 100-15 7.5 7.5 0 000 15z"/></symbol><symbol id="icon-soc-mdm" viewBox="0 0 30 31"><path fill-rule="evenodd" clip-rule="evenodd" d="M15 2c7.456 0 13.5 6.044 13.5 13.5S22.456 29 15 29 1.5 22.956 1.5 15.5 7.544 2 15 2zm-3.966 8.405a5.095 5.095 0 110 10.19 5.095 5.095 0 010-10.19zm8.153.402c1.424 0 2.578 2.101 2.578 4.693 0 2.592-1.154 4.692-2.578 4.692s-2.578-2.1-2.578-4.692 1.154-4.693 2.578-4.693zm3.975.403c.496 0 .898 1.92.898 4.29s-.402 4.29-.898 4.29-.898-1.92-.898-4.29.402-4.29.898-4.29z"/></symbol><symbol id="icon-soc-tgm" viewBox="0 0 30 31"><path d="M24.087 5.068s2.428-.947 2.226 1.353c-.067.947-.674 4.26-1.147 7.845l-1.619 10.619s-.134 1.555-1.349 1.826c-1.214.27-3.035-.947-3.372-1.217-.27-.203-5.06-3.247-6.746-4.735-.472-.406-1.011-1.217.068-2.164l7.082-6.763c.81-.812 1.62-2.706-1.753-.406L8.033 17.85s-1.08.676-3.103.068L.546 16.566s-1.619-1.015 1.147-2.03c6.745-3.178 15.042-6.424 22.394-9.468z"/></symbol><symbol id="icon-soc-twt" viewBox="0 0 30 31"><path d="M22.805 3.313h4.135l-9.034 10.324 10.628 14.05h-8.322l-6.517-8.52-7.458 8.52H2.1l9.662-11.043L1.567 3.313H10.1l5.891 7.788 6.814-7.789zm-1.451 21.9h2.291L8.855 5.656H6.396l14.958 19.555z"/></symbol> <view id="icon-arr-left-view-white" viewBox="0 0 17 30" preserveAspectRatio="none"/><view id="icon-arr-left-view-cyan" viewBox="0 40 17 30" preserveAspectRatio="none"/><view id="icon-arr-left-view-blue" viewBox="0 80 17 30" preserveAspectRatio="none"/><view id="icon-arr-left-view-purple" viewBox="0 120 17 30" preserveAspectRatio="none"/><view id="icon-arr-right-view-white" viewBox="0 160 17 30" preserveAspectRatio="none"/><view id="icon-arr-right-view-cyan" viewBox="0 200 17 30" preserveAspectRatio="none"/><view id="icon-arr-right-view-blue" viewBox="0 240 17 30" preserveAspectRatio="none"/><view id="icon-arr-right-view-purple" viewBox="0 280 17 30" preserveAspectRatio="none"/><view id="icon-play-view-white" viewBox="0 320 7 11" preserveAspectRatio="none"/><view id="icon-play-view-cyan" viewBox="0 341 7 11" preserveAspectRatio="none"/><view id="icon-play-view-blue" viewBox="0 362 7 11" preserveAspectRatio="none"/><view id="icon-play-view-purple" viewBox="0 383 7 11" preserveAspectRatio="none"/><view id="icon-scroll-view-white" viewBox="0 404 21 52" preserveAspectRatio="none"/><view id="icon-scroll-view-cyan" viewBox="0 466 21 52" preserveAspectRatio="none"/><view id="icon-scroll-view-blue" viewBox="0 528 21 52" preserveAspectRatio="none"/><view id="icon-scroll-view-purple" viewBox="0 590 21 52" preserveAspectRatio="none"/><view id="icon-soc-dsc-view-white" viewBox="0 652 30 31" preserveAspectRatio="none"/><view id="icon-soc-dsc-view-cyan" viewBox="0 693 30 31" preserveAspectRatio="none"/><view id="icon-soc-dsc-view-blue" viewBox="0 734 30 31" preserveAspectRatio="none"/><view id="icon-soc-dsc-view-purple" viewBox="0 775 30 31" preserveAspectRatio="none"/><view id="icon-soc-fbk-view-white" viewBox="0 816 30 31" preserveAspectRatio="none"/><view id="icon-soc-fbk-view-cyan" viewBox="0 857 30 31" preserveAspectRatio="none"/><view id="icon-soc-fbk-view-blue" viewBox="0 898 30 31" preserveAspectRatio="none"/><view id="icon-soc-fbk-view-purple" viewBox="0 939 30 31" preserveAspectRatio="none"/><view id="icon-soc-ins-view-white" viewBox="0 980 30 31" preserveAspectRatio="none"/><view id="icon-soc-ins-view-cyan" viewBox="0 1021 30 31" preserveAspectRatio="none"/><view id="icon-soc-ins-view-blue" viewBox="0 1062 30 31" preserveAspectRatio="none"/><view id="icon-soc-ins-view-purple" viewBox="0 1103 30 31" preserveAspectRatio="none"/><view id="icon-soc-mdm-view-white" viewBox="0 1144 30 31" preserveAspectRatio="none"/><view id="icon-soc-mdm-view-cyan" viewBox="0 1185 30 31" preserveAspectRatio="none"/><view id="icon-soc-mdm-view-blue" viewBox="0 1226 30 31" preserveAspectRatio="none"/><view id="icon-soc-mdm-view-purple" viewBox="0 1267 30 31" preserveAspectRatio="none"/><view id="icon-soc-tgm-view-white" viewBox="0 1308 30 31" preserveAspectRatio="none"/><view id="icon-soc-tgm-view-cyan" viewBox="0 1349 30 31" preserveAspectRatio="none"/><view id="icon-soc-tgm-view-blue" viewBox="0 1390 30 31" preserveAspectRatio="none"/><view id="icon-soc-tgm-view-purple" viewBox="0 1431 30 31" preserveAspectRatio="none"/><view id="icon-soc-twt-view-white" viewBox="0 1472 30 31" preserveAspectRatio="none"/><view id="icon-soc-twt-view-cyan" viewBox="0 1513 30 31" preserveAspectRatio="none"/><view id="icon-soc-twt-view-blue" viewBox="0 1554 30 31" preserveAspectRatio="none"/><view id="icon-soc-twt-view-purple" viewBox="0 1595 30 31" preserveAspectRatio="none"/> <use xlink:href="#icon-arr-left" x="0" y="0" width="17" height="30" style="fill:#ffffff"/><use xlink:href="#icon-arr-left" x="0" y="40" width="17" height="30" style="fill:#00ACE3"/><use xlink:href="#icon-arr-left" x="0" y="80" width="17" height="30" style="fill:#0075FF"/><use xlink:href="#icon-arr-left" x="0" y="120" width="17" height="30" style="fill:#BA62FF"/><use xlink:href="#icon-arr-right" x="0" y="160" width="17" height="30" style="fill:#ffffff"/><use xlink:href="#icon-arr-right" x="0" y="200" width="17" height="30" style="fill:#00ACE3"/><use xlink:href="#icon-arr-right" x="0" y="240" width="17" height="30" style="fill:#0075FF"/><use xlink:href="#icon-arr-right" x="0" y="280" width="17" height="30" style="fill:#BA62FF"/><use xlink:href="#icon-play" x="0" y="320" width="7" height="11" style="fill:#ffffff"/><use xlink:href="#icon-play" x="0" y="341" width="7" height="11" style="fill:#00ACE3"/><use xlink:href="#icon-play" x="0" y="362" width="7" height="11" style="fill:#0075FF"/><use xlink:href="#icon-play" x="0" y="383" width="7" height="11" style="fill:#BA62FF"/><use xlink:href="#icon-scroll" x="0" y="404" width="21" height="52" style="fill:#ffffff"/><use xlink:href="#icon-scroll" x="0" y="466" width="21" height="52" style="fill:#00ACE3"/><use xlink:href="#icon-scroll" x="0" y="528" width="21" height="52" style="fill:#0075FF"/><use xlink:href="#icon-scroll" x="0" y="590" width="21" height="52" style="fill:#BA62FF"/><use xlink:href="#icon-soc-dsc" x="0" y="652" width="30" height="31" style="fill:#ffffff"/><use xlink:href="#icon-soc-dsc" x="0" y="693" width="30" height="31" style="fill:#00ACE3"/><use xlink:href="#icon-soc-dsc" x="0" y="734" width="30" height="31" style="fill:#0075FF"/><use xlink:href="#icon-soc-dsc" x="0" y="775" width="30" height="31" style="fill:#BA62FF"/><use xlink:href="#icon-soc-fbk" x="0" y="816" width="30" height="31" style="fill:#ffffff"/><use xlink:href="#icon-soc-fbk" x="0" y="857" width="30" height="31" style="fill:#00ACE3"/><use xlink:href="#icon-soc-fbk" x="0" y="898" width="30" height="31" style="fill:#0075FF"/><use xlink:href="#icon-soc-fbk" x="0" y="939" width="30" height="31" style="fill:#BA62FF"/><use xlink:href="#icon-soc-ins" x="0" y="980" width="30" height="31" style="fill:#ffffff"/><use xlink:href="#icon-soc-ins" x="0" y="1021" width="30" height="31" style="fill:#00ACE3"/><use xlink:href="#icon-soc-ins" x="0" y="1062" width="30" height="31" style="fill:#0075FF"/><use xlink:href="#icon-soc-ins" x="0" y="1103" width="30" height="31" style="fill:#BA62FF"/><use xlink:href="#icon-soc-mdm" x="0" y="1144" width="30" height="31" style="fill:#ffffff"/><use xlink:href="#icon-soc-mdm" x="0" y="1185" width="30" height="31" style="fill:#00ACE3"/><use xlink:href="#icon-soc-mdm" x="0" y="1226" width="30" height="31" style="fill:#0075FF"/><use xlink:href="#icon-soc-mdm" x="0" y="1267" width="30" height="31" style="fill:#BA62FF"/><use xlink:href="#icon-soc-tgm" x="0" y="1308" width="30" height="31" style="fill:#ffffff"/><use xlink:href="#icon-soc-tgm" x="0" y="1349" width="30" height="31" style="fill:#00ACE3"/><use xlink:href="#icon-soc-tgm" x="0" y="1390" width="30" height="31" style="fill:#0075FF"/><use xlink:href="#icon-soc-tgm" x="0" y="1431" width="30" height="31" style="fill:#BA62FF"/><use xlink:href="#icon-soc-twt" x="0" y="1472" width="30" height="31" style="fill:#ffffff"/><use xlink:href="#icon-soc-twt" x="0" y="1513" width="30" height="31" style="fill:#00ACE3"/><use xlink:href="#icon-soc-twt" x="0" y="1554" width="30" height="31" style="fill:#0075FF"/><use xlink:href="#icon-soc-twt" x="0" y="1595" width="30" height="31" style="fill:#BA62FF"/></svg>