<svg width="225" height="40" viewBox="0 0 225 40" fill="none" xmlns="http://www.w3.org/2000/svg">
<g clip-path="url(#clip0_2807_1363)">
<path d="M52.7247 27.1177V27.2942L49.1173 32.5834H47.9316L51.7367 27.1177H52.7247ZM55.3146 31.3347H49.5209V30.6283H55.3146V31.3347ZM55.6509 32.5834L52.0352 27.2942L52.0436 27.1177H53.0274L56.8323 32.5834H55.6509Z" fill="#85868C"/>
<path d="M64.3077 29.7409V27.1216H65.2873V29.9175C65.2873 30.5524 65.1359 31.0737 64.829 31.4774C64.5262 31.881 64.089 32.1795 63.5215 32.3771C62.9539 32.5747 62.2812 32.6756 61.495 32.6756C60.7129 32.6756 60.0403 32.5747 59.4726 32.3771C58.905 32.1795 58.4678 31.8768 58.1608 31.4774C57.8581 31.0737 57.7025 30.5524 57.7025 29.9175V27.1216H58.6822V29.7409C58.6822 30.216 58.7831 30.6071 58.9807 30.9182C59.1826 31.2293 59.4894 31.4563 59.9057 31.6035C60.3219 31.7507 60.8517 31.8221 61.4907 31.8221C62.1298 31.8221 62.6595 31.7507 63.0715 31.6035C63.4837 31.4563 63.7948 31.2293 63.9966 30.9182C64.2025 30.6071 64.3077 30.216 64.3077 29.7409Z" fill="#85868C"/>
<path d="M70.0802 27.9585H66.7882V27.1177H74.3519V27.9585H71.0599V32.5834H70.0802V27.9585Z" fill="#85868C"/>
<path d="M80.0742 32.6799C79.0862 32.6799 78.2747 32.579 77.6398 32.3814C77.005 32.1796 76.5341 31.8727 76.2272 31.4565C75.9203 31.0402 75.7648 30.5062 75.7648 29.8546C75.7648 29.1987 75.9203 28.6606 76.2272 28.2486C76.5341 27.8365 77.005 27.5254 77.6398 27.3278C78.2747 27.126 79.0862 27.0293 80.0742 27.0293C81.058 27.0293 81.8653 27.1302 82.5044 27.3278C83.1393 27.5296 83.6143 27.8365 83.9213 28.2486C84.2324 28.6647 84.3879 29.1987 84.3879 29.8546C84.3879 30.5062 84.2324 31.0402 83.9213 31.4565C83.6102 31.8727 83.1393 32.1838 82.5044 32.3814C81.8653 32.579 81.058 32.6799 80.0742 32.6799ZM80.0742 31.8307C80.6923 31.8307 81.2178 31.7928 81.6424 31.7129C82.0672 31.6372 82.4077 31.5154 82.6642 31.3513C82.9206 31.1874 83.1056 30.9814 83.2191 30.7334C83.3326 30.4853 83.3915 30.191 83.3915 29.8462C83.3915 29.4972 83.3326 29.203 83.2191 28.9549C83.1056 28.711 82.9206 28.505 82.6642 28.341C82.4077 28.1771 82.0672 28.0594 81.6424 27.9794C81.2178 27.9038 80.6965 27.8618 80.0742 27.8618C79.246 27.8618 78.5901 27.929 78.1024 28.072C77.6146 28.2107 77.2657 28.4251 77.0554 28.7152C76.8452 29.0054 76.7402 29.3837 76.7402 29.842C76.7402 30.3003 76.8452 30.6786 77.0554 30.9688C77.2657 31.2589 77.6146 31.4733 78.1024 31.612C78.5901 31.7635 79.246 31.8307 80.0742 31.8307Z" fill="#85868C"/>
<path d="M87.1375 32.5834H86.158V27.1177H87.352L91.157 31.7762L94.9619 27.1177H96.1392V32.5834H95.1596V28.2781L91.6321 32.5834H90.6482L87.1292 28.2781V32.5834H87.1375Z" fill="#85868C"/>
<path d="M102.601 32.6799C101.613 32.6799 100.802 32.579 100.167 32.3814C99.5322 32.1796 99.0613 31.8727 98.7543 31.4565C98.4474 31.0402 98.2919 30.5062 98.2919 29.8546C98.2919 29.1987 98.4474 28.6606 98.7543 28.2486C99.0613 27.8365 99.5322 27.5254 100.167 27.3278C100.802 27.126 101.613 27.0293 102.601 27.0293C103.586 27.0293 104.392 27.1302 105.032 27.3278C105.666 27.5296 106.141 27.8365 106.449 28.2486C106.76 28.6647 106.915 29.1987 106.915 29.8546C106.915 30.5062 106.76 31.0402 106.449 31.4565C106.137 31.8727 105.666 32.1838 105.032 32.3814C104.392 32.579 103.581 32.6799 102.601 32.6799ZM102.601 31.8307C103.219 31.8307 103.745 31.7928 104.169 31.7129C104.594 31.6372 104.934 31.5154 105.191 31.3513C105.447 31.1874 105.632 30.9814 105.747 30.7334C105.86 30.4853 105.919 30.191 105.919 29.8462C105.919 29.4972 105.86 29.203 105.747 28.9549C105.632 28.711 105.447 28.505 105.191 28.341C104.934 28.1771 104.594 28.0594 104.169 27.9794C103.745 27.9038 103.224 27.8618 102.601 27.8618C101.773 27.8618 101.117 27.929 100.629 28.072C100.142 28.2107 99.7927 28.4251 99.5826 28.7152C99.3724 29.0054 99.2672 29.3837 99.2672 29.842C99.2672 30.3003 99.3724 30.6786 99.5826 30.9688C99.7927 31.2589 100.142 31.4733 100.629 31.612C101.113 31.7635 101.773 31.8307 102.601 31.8307Z" fill="#85868C"/>
<path d="M111.619 27.9585H108.328V27.1177H115.891V27.9585H112.599V32.5834H111.619V27.9585Z" fill="#85868C"/>
<path d="M118.409 32.5834H117.43V27.1177H118.409V32.5834Z" fill="#85868C"/>
<path d="M123.586 32.5834L119.827 27.1177H121.02L124.242 31.7803L127.453 27.1177H128.623L124.872 32.5834H123.586Z" fill="#85868C"/>
<path d="M137.687 32.5834H130.611V27.1177H137.687V27.9039H131.586V29.4679H137.531V30.1322H131.586V31.8014H137.687V32.5834Z" fill="#85868C"/>
<path d="M149.956 32.5834H142.879V27.1177H149.956V27.9039H143.855V29.4679H149.8V30.1322H143.855V31.8014H149.956V32.5834Z" fill="#85868C"/>
<path d="M165.087 32.6799C164.099 32.6799 163.287 32.579 162.653 32.3814C162.018 32.1796 161.546 31.8727 161.24 31.4565C160.933 31.0402 160.777 30.5062 160.777 29.8546C160.777 29.1987 160.933 28.6606 161.24 28.2486C161.546 27.8365 162.018 27.5254 162.653 27.3278C163.287 27.126 164.099 27.0293 165.087 27.0293C166.07 27.0293 166.877 27.1302 167.517 27.3278C168.151 27.5296 168.627 27.8365 168.934 28.2486C169.245 28.6647 169.401 29.1987 169.401 29.8546C169.401 30.5062 169.245 31.0402 168.934 31.4565C168.623 31.8727 168.151 32.1838 167.517 32.3814C166.877 32.579 166.07 32.6799 165.087 32.6799ZM165.087 31.8307C165.705 31.8307 166.231 31.7928 166.655 31.7129C167.079 31.6372 167.42 31.5154 167.677 31.3513C167.933 31.1874 168.118 30.9814 168.232 30.7334C168.345 30.4853 168.404 30.191 168.404 29.8462C168.404 29.4972 168.345 29.203 168.232 28.9549C168.118 28.711 167.933 28.505 167.677 28.341C167.42 28.1771 167.079 28.0594 166.655 27.9794C166.231 27.9038 165.709 27.8618 165.087 27.8618C164.259 27.8618 163.603 27.929 163.115 28.072C162.627 28.2107 162.278 28.4251 162.068 28.7152C161.857 29.0054 161.753 29.3837 161.753 29.842C161.753 30.3003 161.857 30.6786 162.068 30.9688C162.278 31.2589 162.627 31.4733 163.115 31.612C163.603 31.7635 164.259 31.8307 165.087 31.8307Z" fill="#85868C"/>
<path d="M178.158 31.1328C178.158 31.4061 178.104 31.6372 177.998 31.8348C177.893 32.0283 177.708 32.1922 177.452 32.3142C177.195 32.4403 176.85 32.5328 176.413 32.5917C175.976 32.6505 175.43 32.6799 174.774 32.6799C174.358 32.6799 173.921 32.6632 173.462 32.6295C173.004 32.5959 172.567 32.5455 172.147 32.4866C171.725 32.4235 171.36 32.3605 171.045 32.289L171.179 31.4859C171.436 31.5448 171.717 31.5994 172.019 31.6457C172.323 31.692 172.647 31.7382 172.982 31.7761C173.319 31.8139 173.656 31.8433 173.996 31.8643C174.336 31.8853 174.669 31.8979 174.993 31.8979C175.463 31.8979 175.841 31.8853 176.136 31.8559C176.426 31.8265 176.654 31.7802 176.809 31.7213C176.969 31.6583 177.074 31.5784 177.132 31.4776C177.191 31.3766 177.221 31.2547 177.221 31.1159C177.221 30.9141 177.178 30.7628 177.099 30.6619C177.019 30.561 176.902 30.4895 176.745 30.4432C176.59 30.397 176.397 30.3634 176.169 30.3423L173.05 30.069C172.584 30.0355 172.197 29.9681 171.886 29.8631C171.575 29.7579 171.339 29.6066 171.184 29.4005C171.028 29.1987 170.952 28.9297 170.952 28.5891C170.952 28.2149 171.062 27.9122 171.28 27.6851C171.499 27.4539 171.856 27.29 172.352 27.1848C172.848 27.0797 173.504 27.0293 174.324 27.0293C174.589 27.0293 174.878 27.0376 175.186 27.0587C175.493 27.0755 175.808 27.1007 176.132 27.1344C176.456 27.168 176.767 27.2017 177.069 27.2479C177.372 27.29 177.65 27.3404 177.898 27.3909L177.738 28.1518C177.506 28.1056 177.246 28.0594 176.952 28.0216C176.658 27.9794 176.346 27.9458 176.023 27.9164C175.695 27.887 175.371 27.8618 175.047 27.8449C174.723 27.8281 174.417 27.8155 174.122 27.8155C173.651 27.8155 173.269 27.8281 172.971 27.8492C172.671 27.8744 172.445 27.9164 172.289 27.9794C172.134 28.0425 172.024 28.1182 171.965 28.2149C171.906 28.3116 171.877 28.4293 171.877 28.5681C171.877 28.7447 171.919 28.8792 172.008 28.9717C172.091 29.0641 172.217 29.1315 172.386 29.1693C172.554 29.2071 172.76 29.2408 173.008 29.2744L176.043 29.5309C176.376 29.5561 176.67 29.6024 176.935 29.6654C177.195 29.7285 177.419 29.8209 177.595 29.9429C177.772 30.0648 177.91 30.2204 178.002 30.4096C178.112 30.6072 178.158 30.8469 178.158 31.1328Z" fill="#85868C"/>
<path d="M182.872 30.4221L179.185 27.1216H180.459L183.368 29.6779L186.277 27.1216H187.534L183.847 30.4304V32.5873H182.872V30.4221Z" fill="#85868C"/>
<path d="M195.556 31.1328C195.556 31.4061 195.502 31.6372 195.397 31.8348C195.291 32.0283 195.106 32.1922 194.85 32.3142C194.593 32.4403 194.249 32.5328 193.811 32.5917C193.374 32.6505 192.827 32.6799 192.171 32.6799C191.756 32.6799 191.318 32.6632 190.86 32.6295C190.401 32.5959 189.964 32.5455 189.544 32.4866C189.123 32.4235 188.758 32.3605 188.442 32.289L188.577 31.4859C188.833 31.5448 189.115 31.5994 189.418 31.6457C189.721 31.692 190.044 31.7382 190.381 31.7761C190.717 31.8139 191.053 31.8433 191.394 31.8643C191.734 31.8853 192.067 31.8979 192.39 31.8979C192.861 31.8979 193.24 31.8853 193.534 31.8559C193.828 31.8265 194.051 31.7802 194.206 31.7213C194.367 31.6583 194.471 31.5784 194.53 31.4776C194.589 31.3766 194.619 31.2547 194.619 31.1159C194.619 30.9141 194.576 30.7628 194.497 30.6619C194.417 30.561 194.299 30.4895 194.143 30.4432C193.988 30.397 193.795 30.3634 193.567 30.3423L190.447 30.069C189.981 30.0355 189.594 29.9681 189.283 29.8631C188.972 29.7579 188.736 29.6066 188.581 29.4005C188.425 29.1987 188.349 28.9297 188.349 28.5891C188.349 28.2149 188.459 27.9122 188.677 27.6851C188.897 27.4539 189.253 27.29 189.749 27.1848C190.246 27.0797 190.902 27.0293 191.721 27.0293C191.991 27.0293 192.277 27.0376 192.584 27.0587C192.891 27.0755 193.206 27.1007 193.53 27.1344C193.854 27.168 194.165 27.2017 194.467 27.2479C194.769 27.29 195.047 27.3404 195.295 27.3909L195.136 28.1518C194.904 28.1056 194.643 28.0594 194.349 28.0216C194.056 27.9794 193.744 27.9458 193.421 27.9164C193.093 27.887 192.769 27.8618 192.445 27.8449C192.121 27.8281 191.814 27.8155 191.52 27.8155C191.049 27.8155 190.666 27.8281 190.368 27.8492C190.069 27.8744 189.842 27.9164 189.686 27.9794C189.531 28.0425 189.422 28.1182 189.364 28.2149C189.304 28.3116 189.275 28.4293 189.275 28.5681C189.275 28.7447 189.317 28.8792 189.405 28.9717C189.49 29.0641 189.616 29.1315 189.784 29.1693C189.951 29.2071 190.158 29.2408 190.406 29.2744L193.441 29.5309C193.773 29.5561 194.067 29.6024 194.332 29.6654C194.597 29.7285 194.816 29.8209 194.993 29.9429C195.169 30.0648 195.308 30.2204 195.4 30.4096C195.51 30.6072 195.556 30.8469 195.556 31.1328Z" fill="#85868C"/>
<path d="M200.172 27.9585H196.88V27.1177H204.444V27.9585H201.152V32.5834H200.172V27.9585Z" fill="#85868C"/>
<path d="M213.059 32.5834H205.983V27.1177H213.059V27.9039H206.959V29.4679H212.903V30.1322H206.959V31.8014H213.059V32.5834Z" fill="#85868C"/>
<path d="M215.998 32.5834H215.019V27.1177H216.212L220.017 31.7762L223.822 27.1177H225V32.5834H224.02V28.2781L220.493 32.5834H219.509L215.989 28.2781V32.5834H215.998Z" fill="#85868C"/>
<path d="M152.121 31.8602C152.365 32.0915 152.667 32.268 153.024 32.3941C153.395 32.5202 153.824 32.5876 154.307 32.5876H159.622V31.7971H154.5C153.857 31.7971 153.34 31.629 152.97 31.2968C152.596 30.9646 152.406 30.4811 152.394 29.8589C152.402 29.224 152.596 28.7405 152.97 28.4084C153.154 28.2444 153.374 28.1183 153.63 28.0343H153.634C153.891 27.9501 154.176 27.908 154.5 27.908H159.622V27.1177H154.307C153.828 27.1177 153.395 27.1807 153.024 27.311C152.667 27.433 152.365 27.6138 152.121 27.8408C152.019 27.9333 151.936 28.0469 151.856 28.1604C151.839 28.1813 151.817 28.2024 151.801 28.2234C151.708 28.3663 151.628 28.5177 151.565 28.6859C151.443 29.0012 151.38 29.3754 151.373 29.7958V29.901C151.38 30.3172 151.448 30.6914 151.565 31.0067C151.691 31.3473 151.881 31.6332 152.121 31.8602Z" fill="#85868C"/>
<path d="M48.9883 19.6229H53.0105V15.208H66.6478V12.0348H53.0105V9.55142H67.0192V6.10229H48.9883V19.6229Z" fill="#85868B"/>
<path d="M85.5809 6.57992C83.9571 6.08112 81.8452 5.82642 79.2557 5.82642C76.6768 5.82642 74.5649 6.08112 72.9305 6.57992C71.2962 7.07872 70.0863 7.85344 69.3116 8.88288C68.5369 9.91231 68.1548 11.2389 68.1548 12.8733C68.1548 14.4864 68.5369 15.813 69.3116 16.853C70.0863 17.8931 71.2962 18.6572 72.9305 19.1666C74.5649 19.6654 76.6768 19.9201 79.2557 19.9201C81.8452 19.9201 83.9571 19.6654 85.5809 19.1666C87.2046 18.6678 88.4145 17.8931 89.1892 16.853C89.9639 15.813 90.3566 14.4864 90.3566 12.8733C90.3566 11.2495 89.9639 9.92292 89.1892 8.88288C88.4039 7.84283 87.2046 7.07872 85.5809 6.57992ZM85.9205 14.5182C85.6976 14.9746 85.3156 15.346 84.7955 15.6326C84.2649 15.9191 83.5538 16.1207 82.6412 16.2587C81.7391 16.3861 80.6141 16.4603 79.2663 16.4603C77.4515 16.4603 76.04 16.3436 75.0106 16.1101C73.9812 15.8766 73.2595 15.4946 72.835 14.9746C72.4105 14.4439 72.1876 13.7435 72.1876 12.8733C72.1876 12.003 72.3999 11.3026 72.835 10.7719C73.2595 10.2413 73.9918 9.85924 75.0106 9.63638C76.04 9.4029 77.4515 9.28616 79.2663 9.28616C80.6141 9.28616 81.7391 9.34984 82.6412 9.47719C83.5432 9.60454 84.2649 9.80618 84.7955 10.0927C85.3262 10.3793 85.6976 10.7507 85.9205 11.2071C86.1433 11.6634 86.2601 12.2259 86.2601 12.8839C86.2495 13.51 86.1433 14.0619 85.9205 14.5182Z" fill="#85868B"/>
<path d="M109.046 14.8153C109.757 14.4651 110.298 13.9557 110.669 13.2977C111.041 12.6397 111.232 11.8119 111.232 10.8143C111.232 9.93348 111.094 9.17998 110.829 8.57506C110.553 7.97013 110.171 7.48195 109.672 7.13173C109.173 6.7709 108.568 6.51619 107.878 6.34639C107.188 6.17658 106.424 6.10229 105.586 6.10229H92.044V19.6229H96.0662V15.6962H101.203L106.063 19.6229H111.115L106.679 16.1313L105.607 15.4733L106.477 15.4521C107.475 15.3778 108.335 15.1655 109.046 14.8153ZM105.183 12.6822H96.0662V9.55142H105.183C105.862 9.55142 106.339 9.66816 106.626 9.89103C106.912 10.1139 107.061 10.5278 107.061 11.1433C107.061 11.6952 106.912 12.0985 106.626 12.332C106.339 12.5654 105.862 12.6822 105.183 12.6822Z" fill="#85868B"/>
<path d="M126.015 16.3117L117.928 6.10229H113.036V19.6229H117.058V10.878L123.935 19.6229H128L134.877 10.878V19.6229H138.91V6.10229H134.092L126.015 16.3117Z" fill="#85868B"/>
<path d="M152.643 6.10229H149.724H148.493L139.695 19.6229H144.534L146.169 17.0015H156.155L157.79 19.6229H162.672L153.874 6.10229H152.643ZM147.92 14.2104L151.167 9.01018L154.415 14.2104H147.92Z" fill="#85868B"/>
<path d="M194.966 6.10229H192.048H190.816L182.019 19.6229H186.858L188.492 17.0015H198.479L200.113 19.6229H204.995L196.197 6.10229H194.966ZM190.243 14.2104L193.491 9.01018L196.738 14.2104H190.243Z" fill="#85868B"/>
<path d="M219.375 15.4839L220.245 15.4627C221.254 15.3884 222.103 15.1655 222.814 14.8153C223.525 14.4651 224.066 13.9557 224.438 13.2977C224.82 12.6397 225 11.8119 225 10.8143C225 9.93348 224.862 9.17998 224.597 8.57506C224.321 7.97013 223.939 7.48195 223.44 7.13173C222.941 6.7709 222.336 6.51619 221.646 6.34639C220.957 6.17658 220.192 6.10229 219.354 6.10229H205.812V19.6229H209.834V15.6962H214.971L219.832 19.6229H224.883L220.447 16.1313L219.375 15.4839ZM209.834 12.6822V9.55142H218.951C219.63 9.55142 220.108 9.66816 220.394 9.89103C220.681 10.1139 220.829 10.5278 220.829 11.1433C220.829 11.6952 220.681 12.0985 220.394 12.332C220.108 12.5654 219.619 12.6928 218.951 12.6928H209.834V12.6822Z" fill="#85868B"/>
<path d="M161.663 12.7246C161.685 11.7164 161.844 10.8143 162.141 10.0184C162.47 9.16934 162.937 8.45829 163.552 7.86397C164.168 7.28028 164.932 6.83454 165.824 6.52677C166.715 6.21901 167.734 6.05981 168.869 6.05981H181.201V9.5514H169.283C168.116 9.5514 167.224 9.83794 166.588 10.4004C165.972 10.9523 165.664 11.7695 165.654 12.8413C165.675 13.9132 165.983 14.7304 166.588 15.2823C167.214 15.8447 168.116 16.1313 169.283 16.1313H181.201V19.6229H168.869C167.734 19.6229 166.715 19.4637 165.824 19.1559C164.932 18.8481 164.168 18.4024 163.552 17.8187C162.937 17.235 162.459 16.5133 162.141 15.6643C161.833 14.8684 161.685 13.9663 161.663 12.9581V12.7246Z" fill="#85868B"/>
<path d="M27.0306 3.03526L29.2592 6.05989C29.5458 4.48921 29.7793 2.70627 29.8323 0.74292L27.0306 3.03526Z" fill="url(#paint0_linear_2807_1363)"/>
<path d="M10.3898 14.9533C12.4593 14.6986 14.5606 14.5181 16.6513 14.4332C19.2621 14.3165 21.841 14.3377 24.3349 14.4969L27.7947 12.0985C25.2476 11.8225 22.5202 11.6633 19.6866 11.6633C14.7729 11.6633 10.167 12.1197 6.28272 12.905L4.63775 15.9084C4.83939 15.8553 7.015 15.3672 10.3898 14.9533Z" fill="url(#paint1_linear_2807_1363)"/>
<path d="M36.5183 4.82882L39.0548 3.03527C38.9805 3.00343 38.6833 2.87608 38.227 2.7275C37.0914 2.32422 35.8179 1.95277 34.4595 1.62378L36.5183 4.82882Z" fill="url(#paint2_linear_2807_1363)"/>
<path d="M26.1497 17.3624L24.3456 14.4863C21.8303 14.3165 19.2727 14.3165 16.662 14.4226C14.5712 14.5181 12.4699 14.688 10.4005 14.9427C7.02561 15.3566 5.31697 15.7386 4.64837 15.8978L7.86402 18.0416C11.398 17.4366 15.4203 17.0864 19.6972 17.0864C21.9259 17.097 24.0696 17.1926 26.1497 17.3624Z" fill="url(#paint3_linear_2807_1363)"/>
<path d="M19.1984 2.72755C16.4921 2.75939 13.8496 2.91858 11.3344 3.19451C8.1824 3.54473 5.24268 4.08598 2.52582 4.83948L5.05165 6.81344C9.13754 5.89014 13.9557 5.34889 19.3151 5.34889C22.7643 5.34889 26.224 5.58237 29.2698 6.04933L27.0412 3.0247C26.9563 3.0247 23.7619 2.6851 19.1984 2.72755Z" fill="url(#paint4_linear_2807_1363)"/>
<path d="M36.5077 4.82882C36.4865 8.88287 35.595 13.1067 33.8333 17.3943C32.4218 20.8328 30.4479 24.2925 27.9963 27.7629C25.8207 30.8406 23.6239 33.2921 22.1699 34.8203C20.6205 36.4547 19.6017 37.3568 19.5274 37.4204V40.4663C20.2172 39.8932 39.0548 25.6085 39.0548 3.04588V3.02466L36.5077 4.82882Z" fill="url(#paint5_linear_2807_1363)"/>
<path d="M19.5168 37.4203C19.4319 37.346 18.4661 36.4227 16.8636 34.7778C15.3141 33.1965 13.2128 30.8617 11.0478 27.7734C8.60691 24.3136 6.66478 20.8327 5.22145 17.3835C5.01981 16.8954 4.83939 16.4496 4.65898 15.9614L4.64837 15.9508V15.9402V15.9296V15.919L4.63775 15.8978C3.2581 12.109 2.55766 8.43703 2.53644 4.83932L0.0106127 3.03516C-0.360832 25.2051 18.9012 39.9355 19.5274 40.4556V37.4203H19.5168Z" fill="url(#paint6_linear_2807_1363)"/>
<path d="M19.5168 34.7248V37.4204C19.6335 37.3143 20.6842 36.391 22.1699 34.8309C23.6239 33.3027 25.8101 30.8406 27.9963 27.7735C30.4585 24.3244 32.4218 20.8328 33.8333 17.4049C35.595 13.1067 36.5077 8.87226 36.5183 4.82882L34.4595 1.62378C34.3533 3.88429 34.1941 5.51864 33.8333 7.95957C33.6635 9.05267 33.4725 9.98659 33.2602 10.9523C33.1647 11.4087 33.0267 11.9924 32.8357 12.7034C32.8251 12.7459 32.8145 12.799 32.8039 12.8414C32.6128 13.5631 32.3475 14.4333 32.0079 15.4521C31.5834 16.7257 31.3075 17.5004 31.1165 17.978C31.1165 17.978 31.1165 17.978 31.1271 17.978C26.9987 28.3041 20.0156 34.7142 19.5168 34.7248Z" fill="url(#paint7_linear_2807_1363)"/>
<path d="M11.0372 27.8054C13.2234 30.8725 15.4309 33.3028 16.8742 34.831C18.3706 36.4017 19.4106 37.325 19.5168 37.4205V34.7249C18.9967 34.7249 12.1834 28.5165 7.8534 18.0417L4.63775 15.8979C4.81817 16.3755 5.01981 16.9062 5.21084 17.3837C6.62233 20.8329 8.57507 24.3563 11.0372 27.8054Z" fill="url(#paint8_linear_2807_1363)"/>
<path d="M6.28272 12.8944C5.70964 10.9841 5.38064 9.75304 5.05165 6.81332L2.52582 4.83936C2.53644 8.40523 3.2581 12.1303 4.63775 15.9084L6.28272 12.8944Z" fill="url(#paint9_linear_2807_1363)"/>
<path d="M24.3456 14.4864L26.1391 17.3412L26.1497 17.3624C26.7334 15.8342 27.3065 14.0725 27.8053 12.0879L24.3456 14.4864Z" fill="url(#paint10_linear_2807_1363)"/>
<path d="M2.52582 4.83939H2.53644C5.22145 4.10712 8.17178 3.55526 11.3238 3.20504C13.8496 2.91849 16.4921 2.78053 19.1878 2.74869C19.4849 2.74869 19.7821 2.74869 20.0686 2.74869C24.1545 2.74869 26.9457 3.03523 27.02 3.04585L29.8217 0.742889C26.691 0.265318 23.21 0 19.538 0C11.9287 0 4.75449 1.27352 0.106127 3.0034C0.0530635 3.02462 0.0212254 3.03523 0 3.04585L2.52582 4.83939Z" fill="url(#paint11_linear_2807_1363)"/>
</g>
<defs>
<linearGradient id="paint0_linear_2807_1363" x1="26.6791" y1="-0.371291" x2="40.9208" y2="18.3122" gradientUnits="userSpaceOnUse">
<stop stop-color="#434545"/>
<stop offset="0.0545" stop-color="#525454"/>
<stop offset="0.1594" stop-color="#797A7A"/>
<stop offset="0.3028" stop-color="#B8B8B7"/>
<stop offset="0.3593" stop-color="#D3D2D1"/>
<stop offset="0.7489" stop-color="#4E4F4D"/>
<stop offset="1" stop-color="#D3D2D1"/>
</linearGradient>
<linearGradient id="paint1_linear_2807_1363" x1="18.2955" y1="49.3299" x2="15.7032" y2="5.19013" gradientUnits="userSpaceOnUse">
<stop offset="0.0303" stop-color="#6E6E6E"/>
<stop offset="0.0885" stop-color="#929191"/>
<stop offset="0.1212" stop-color="#A19F9F"/>
<stop offset="0.2511" stop-color="#9B9B9B"/>
<stop offset="0.3333" stop-color="#8A8A8A"/>
<stop offset="0.4113" stop-color="#A19F9F"/>
<stop offset="0.5628" stop-color="#9B9B9B"/>
<stop offset="0.778" stop-color="#8B8B8B"/>
<stop offset="0.7836" stop-color="#8A8A8A"/>
<stop offset="0.8485" stop-color="#D3D2D1"/>
<stop offset="1" stop-color="#9B9B9B"/>
</linearGradient>
<linearGradient id="paint2_linear_2807_1363" x1="41.43" y1="-5.88597" x2="28.8608" y2="16.1629" gradientUnits="userSpaceOnUse">
<stop stop-color="#434545"/>
<stop offset="0.0545" stop-color="#525454"/>
<stop offset="0.1594" stop-color="#797A7A"/>
<stop offset="0.3028" stop-color="#B8B8B7"/>
<stop offset="0.3593" stop-color="#D3D2D1"/>
<stop offset="0.7489" stop-color="#4E4F4D"/>
<stop offset="1" stop-color="#D3D2D1"/>
</linearGradient>
<linearGradient id="paint3_linear_2807_1363" x1="15.3937" y1="-13.8741" x2="15.3937" y2="40.5087" gradientUnits="userSpaceOnUse">
<stop offset="0.0303" stop-color="#6E6E6E"/>
<stop offset="0.0885" stop-color="#929191"/>
<stop offset="0.1212" stop-color="#A19F9F"/>
<stop offset="0.2511" stop-color="#3D3E3D"/>
<stop offset="0.3333" stop-color="#8A8A8A"/>
<stop offset="0.4113" stop-color="#A19F9F"/>
<stop offset="0.4523" stop-color="#7D7C7C"/>
<stop offset="0.4991" stop-color="#5A5A5A"/>
<stop offset="0.5376" stop-color="#454645"/>
<stop offset="0.5628" stop-color="#3D3E3D"/>
<stop offset="0.6227" stop-color="#4E4E4E"/>
<stop offset="0.7402" stop-color="#797979"/>
<stop offset="0.7836" stop-color="#8A8A8A"/>
<stop offset="0.8485" stop-color="#D3D2D1"/>
<stop offset="1" stop-color="#3D3E3D"/>
</linearGradient>
<linearGradient id="paint4_linear_2807_1363" x1="14.5081" y1="-12.8517" x2="19.3737" y2="51.2565" gradientUnits="userSpaceOnUse">
<stop offset="0.0303" stop-color="#9B9999"/>
<stop offset="0.1212" stop-color="#A19F9F"/>
<stop offset="0.1983" stop-color="#20201F"/>
<stop offset="0.3333" stop-color="#787777"/>
<stop offset="0.4113" stop-color="#A19F9F"/>
<stop offset="0.4254" stop-color="#908E8E"/>
<stop offset="0.4701" stop-color="#605F5F"/>
<stop offset="0.5095" stop-color="#3D3D3C"/>
<stop offset="0.5418" stop-color="#282827"/>
<stop offset="0.5628" stop-color="#20201F"/>
<stop offset="0.6163" stop-color="#313030"/>
<stop offset="0.7212" stop-color="#5B5B5A"/>
<stop offset="0.7836" stop-color="#787777"/>
<stop offset="0.8485" stop-color="#D3D2D1"/>
<stop offset="1" stop-color="#20201F"/>
</linearGradient>
<linearGradient id="paint5_linear_2807_1363" x1="29.2837" y1="-4.2757" x2="29.2837" y2="44.9065" gradientUnits="userSpaceOnUse">
<stop stop-color="#5F5F60"/>
<stop offset="0.0524" stop-color="#6E6E6F"/>
<stop offset="0.1533" stop-color="#959595"/>
<stop offset="0.2888" stop-color="#D3D2D1"/>
<stop offset="0.6363" stop-color="#2E2E2E"/>
</linearGradient>
<linearGradient id="paint6_linear_2807_1363" x1="9.75979" y1="-4.27879" x2="9.75979" y2="44.9133" gradientUnits="userSpaceOnUse">
<stop stop-color="#5F5F60"/>
<stop offset="0.0524" stop-color="#6E6E6F"/>
<stop offset="0.1533" stop-color="#959595"/>
<stop offset="0.2888" stop-color="#D3D2D1"/>
<stop offset="0.6363" stop-color="#2E2E2E"/>
</linearGradient>
<linearGradient id="paint7_linear_2807_1363" x1="28.0168" y1="25.5923" x2="28.0168" y2="-65.8204" gradientUnits="userSpaceOnUse">
<stop stop-color="#9D9C9C"/>
<stop offset="0.0551" stop-color="#8E8D8D"/>
<stop offset="0.1611" stop-color="#676666"/>
<stop offset="0.2683" stop-color="#393838"/>
<stop offset="0.4485" stop-color="#D3D2D1"/>
<stop offset="0.7489" stop-color="#393838"/>
<stop offset="1" stop-color="#A3A3A3"/>
</linearGradient>
<linearGradient id="paint8_linear_2807_1363" x1="12.0793" y1="25.5691" x2="12.0793" y2="-66.0175" gradientUnits="userSpaceOnUse">
<stop stop-color="#9D9C9C"/>
<stop offset="0.0551" stop-color="#8E8D8D"/>
<stop offset="0.1611" stop-color="#676666"/>
<stop offset="0.2683" stop-color="#393838"/>
<stop offset="0.4485" stop-color="#D3D2D1"/>
<stop offset="0.7489" stop-color="#393838"/>
<stop offset="1" stop-color="#A3A3A3"/>
</linearGradient>
<linearGradient id="paint9_linear_2807_1363" x1="4.40866" y1="25.6023" x2="4.40866" y2="-65.9112" gradientUnits="userSpaceOnUse">
<stop stop-color="#9D9C9C"/>
<stop offset="0.0551" stop-color="#8E8D8D"/>
<stop offset="0.1611" stop-color="#676666"/>
<stop offset="0.2683" stop-color="#393838"/>
<stop offset="0.4485" stop-color="#D3D2D1"/>
<stop offset="0.7489" stop-color="#393838"/>
<stop offset="1" stop-color="#A3A3A3"/>
</linearGradient>
<linearGradient id="paint10_linear_2807_1363" x1="21.9174" y1="15.0554" x2="60.828" y2="12.5361" gradientUnits="userSpaceOnUse">
<stop stop-color="#434545"/>
<stop offset="0.0545" stop-color="#525454"/>
<stop offset="0.1594" stop-color="#797A7A"/>
<stop offset="0.3028" stop-color="#B8B8B7"/>
<stop offset="0.3593" stop-color="#D3D2D1"/>
<stop offset="0.7489" stop-color="#4E4F4D"/>
<stop offset="1" stop-color="#D3D2D1"/>
</linearGradient>
<linearGradient id="paint11_linear_2807_1363" x1="17.8442" y1="45.5818" x2="14.2654" y2="-7.87716" gradientUnits="userSpaceOnUse">
<stop offset="0.0303" stop-color="#878686"/>
<stop offset="0.0601" stop-color="#A8A6A6"/>
<stop offset="0.1002" stop-color="#CFCCCC"/>
<stop offset="0.1212" stop-color="#DEDBDB"/>
<stop offset="0.2511" stop-color="#9B9B9B"/>
<stop offset="0.3333" stop-color="#B2AFB0"/>
<stop offset="0.4113" stop-color="#DEDBDB"/>
<stop offset="0.4163" stop-color="#DBD8D8"/>
<stop offset="0.4784" stop-color="#B8B7B7"/>
<stop offset="0.5295" stop-color="#A3A2A2"/>
<stop offset="0.5628" stop-color="#9B9B9B"/>
<stop offset="0.7293" stop-color="#ABA9AA"/>
<stop offset="0.7836" stop-color="#B2AFB0"/>
<stop offset="0.8485" stop-color="#E3E2E1"/>
<stop offset="1" stop-color="#9B9B9B"/>
</linearGradient>
<clipPath id="clip0_2807_1363">
<rect width="225" height="40" fill="white"/>
</clipPath>
</defs>
</svg>
