<svg width="409" height="241" viewBox="0 0 409 241" fill="none" xmlns="http://www.w3.org/2000/svg">
<path d="M110.509 219.637C115.175 219.637 120.431 220.459 124.231 221.428L123.703 223.702C120.283 222.923 115.238 221.975 110.34 221.975C101.558 221.975 98.6445 224.629 98.6445 230.063C98.6445 235.497 101.558 238.151 110.34 238.151C114.33 238.151 118.489 237.435 121.487 236.845V229.747H124.252V238.74C120.431 239.688 115.196 240.531 110.53 240.531C100.439 240.531 95.9633 237.224 95.9633 230.084C95.9422 222.923 100.418 219.637 110.509 219.637Z" fill="#85868C"/>
<path d="M143.738 240.194V219.932H162.907C167.889 219.932 170.444 221.87 170.444 226.377C170.444 230.59 168.143 232.675 163.393 232.801H160.733L162.633 234.191L169.895 240.194H166.433L157.671 232.906H146.377V240.194H143.738ZM146.419 230.8H162.801C166.285 230.8 167.72 229.558 167.72 226.525C167.72 223.471 166.285 222.249 162.801 222.249H146.419V230.8Z" fill="#85868C"/>
<path d="M188.473 230.063C188.473 222.755 193.497 219.616 204.222 219.616C214.946 219.616 219.971 222.776 219.971 230.063C219.971 237.372 214.946 240.51 204.222 240.51C193.518 240.51 188.473 237.372 188.473 230.063ZM217.268 230.063C217.268 224.545 213.912 221.954 204.222 221.954C194.553 221.954 191.154 224.545 191.154 230.063C191.154 235.581 194.553 238.172 204.222 238.172C213.912 238.172 217.268 235.581 217.268 230.063Z" fill="#85868C"/>
<path d="M263.46 219.932H266.141V230.147C266.141 237.161 260.926 240.489 252.292 240.489C243.636 240.489 238.443 237.161 238.443 230.147V219.932H241.124V229.705C241.124 235.434 244.692 238.172 252.292 238.172C259.892 238.172 263.46 235.434 263.46 229.705V219.932Z" fill="#85868C"/>
<path d="M285.605 219.932H305.028C309.968 219.932 312.564 221.828 312.564 226.23C312.564 230.779 309.968 232.759 305.028 232.759H288.287V240.194H285.605V219.932ZM288.287 222.249V230.421H304.88C308.342 230.421 309.799 229.263 309.799 226.356C309.799 223.408 308.342 222.249 304.88 222.249H288.287Z" fill="#85868C"/>
<path d="M0.392807 186.971H9.70286V176.756H41.3064V169.426H9.70286V163.697H42.1719V155.715H0.392807V186.971Z" fill="#85868C"/>
<path d="M85.1544 156.831C81.3966 155.673 76.4988 155.083 70.5032 155.083C64.5287 155.083 59.652 155.673 55.852 156.831C52.052 157.989 49.2653 159.759 47.4708 162.139C45.6764 164.519 44.7897 167.594 44.7897 171.343C44.7897 175.071 45.6764 178.125 47.4708 180.526C49.2653 182.927 52.052 184.696 55.852 185.854C59.652 187.013 64.5287 187.602 70.5032 187.602C76.4988 187.602 81.3966 187.013 85.1544 185.854C88.9122 184.696 91.6988 182.906 93.5144 180.526C95.33 178.125 96.2166 175.071 96.2166 171.343C96.2166 167.594 95.3089 164.519 93.5144 162.139C91.6988 159.759 88.9333 157.989 85.1544 156.831ZM85.9355 175.176C85.4077 176.229 84.5421 177.093 83.3177 177.745C82.0932 178.398 80.4255 178.883 78.3354 179.178C76.2454 179.494 73.6276 179.641 70.5032 179.641C66.302 179.641 63.0298 179.367 60.6442 178.841C58.2798 178.314 56.5909 177.43 55.5987 176.208C54.6064 174.986 54.0998 173.365 54.0998 171.343C54.0998 169.321 54.6064 167.699 55.5987 166.477C56.5909 165.256 58.2798 164.371 60.6442 163.845C63.0087 163.318 66.302 163.044 70.5032 163.044C73.6276 163.044 76.2454 163.192 78.3354 163.487C80.4255 163.781 82.0932 164.245 83.3177 164.898C84.5421 165.551 85.4077 166.414 85.9355 167.467C86.4633 168.52 86.7166 169.805 86.7166 171.343C86.7166 172.838 86.4633 174.123 85.9355 175.176Z" fill="#85868C"/>
<path d="M139.516 175.871C141.162 175.071 142.408 173.891 143.274 172.375C144.139 170.837 144.582 168.942 144.582 166.646C144.582 164.603 144.266 162.876 143.632 161.465C142.999 160.054 142.112 158.937 140.951 158.116C139.79 157.294 138.397 156.684 136.792 156.305C135.188 155.925 133.415 155.736 131.494 155.736H100.122V186.992H109.453V177.914H121.339L132.591 186.992H144.308L134.027 178.925L131.557 177.408L133.584 177.366C135.885 177.177 137.869 176.671 139.516 175.871ZM130.565 170.942H109.453V163.697H130.586C132.148 163.697 133.267 163.95 133.942 164.477C134.618 165.003 134.956 165.951 134.956 167.362C134.956 168.647 134.618 169.552 133.942 170.1C133.246 170.669 132.127 170.942 130.565 170.942Z" fill="#85868C"/>
<path d="M178.825 179.325L160.099 155.715H148.741V186.971H158.073V166.772L174.012 186.971H183.427L199.366 166.772V186.971H208.676V155.715H197.529L178.825 179.325Z" fill="#85868C"/>
<path d="M240.512 155.715H233.756H230.906L210.513 186.971H221.723L225.502 180.926H248.64L252.419 186.971H263.713L243.32 155.715H240.512ZM229.555 174.46L237.071 162.455L244.586 174.46H229.555Z" fill="#85868C"/>
<path d="M338.552 155.715H331.797H328.947L308.553 186.971H319.763L323.542 180.926H346.68L350.459 186.971H361.754L341.36 155.715H338.552ZM327.617 174.46L335.132 162.455L342.648 174.46H327.617Z" fill="#85868C"/>
<path d="M395.088 177.387L397.115 177.345C399.437 177.156 401.422 176.671 403.068 175.85C404.715 175.05 405.96 173.87 406.826 172.354C407.692 170.816 408.135 168.921 408.135 166.625C408.135 164.582 407.818 162.855 407.185 161.444C406.552 160.032 405.665 158.916 404.504 158.095C403.343 157.273 401.949 156.662 400.345 156.283C398.74 155.904 396.967 155.715 395.046 155.715H363.675V186.971H373.006V177.893H384.891L396.144 186.971H407.86L397.579 178.904L395.088 177.387ZM372.985 170.942V163.697H394.117C395.679 163.697 396.798 163.95 397.474 164.476C398.149 165.003 398.487 165.951 398.487 167.362C398.487 168.647 398.149 169.552 397.474 170.1C396.798 170.648 395.679 170.921 394.117 170.921H372.985V170.942Z" fill="#85868C"/>
<path d="M261.391 171.027C261.433 168.71 261.792 166.604 262.51 164.771C263.27 162.813 264.346 161.149 265.782 159.801C267.218 158.453 268.97 157.421 271.039 156.705C273.108 155.989 275.472 155.63 278.111 155.63H306.674V163.697H279.061C276.359 163.697 274.29 164.35 272.833 165.656C271.419 166.92 270.701 168.815 270.659 171.279C270.701 173.765 271.419 175.639 272.833 176.903C274.29 178.209 276.38 178.862 279.061 178.862H306.674V186.928H278.111C275.472 186.928 273.108 186.57 271.039 185.854C268.97 185.138 267.218 184.106 265.782 182.758C264.346 181.41 263.249 179.746 262.51 177.788C261.813 175.955 261.454 173.87 261.391 171.532V171.027Z" fill="#85868C"/>
<path d="M226.916 9.54539L233.693 18.6862C234.558 13.9473 235.255 8.53442 235.424 2.59497L226.916 9.54539Z" fill="url(#paint0_linear_2532_2427)"/>
<path d="M176.46 45.6244C182.73 44.8451 189.127 44.3185 195.461 44.0447C203.377 43.7077 211.21 43.7709 218.767 44.2343L229.26 36.9679C221.533 36.1255 213.278 35.6621 204.665 35.6621C189.761 35.6621 175.785 37.0522 164.005 39.4322L159.001 48.5309C159.593 48.3835 166.221 46.8881 176.46 45.6244Z" fill="url(#paint1_linear_2532_2427)"/>
<path d="M255.691 14.9794L263.375 9.5454C263.164 9.46115 262.235 9.08204 260.884 8.59762C257.443 7.37603 253.58 6.25975 249.442 5.24878L255.691 14.9794Z" fill="url(#paint2_linear_2532_2427)"/>
<path d="M224.235 52.9328L218.767 44.2343C211.125 43.7288 203.356 43.7077 195.461 44.0447C189.127 44.3185 182.73 44.8451 176.46 45.6244C166.243 46.8881 161.049 48.0465 159.001 48.5098L168.776 54.9758C179.5 53.1434 191.703 52.0904 204.665 52.0904C211.421 52.1114 217.923 52.3852 224.235 52.9328Z" fill="url(#paint3_linear_2532_2427)"/>
<path d="M203.166 8.63977C194.975 8.72402 186.953 9.20844 179.289 10.072C169.747 11.1461 160.796 12.7679 152.584 15.0426L160.247 21.0242C172.66 18.244 187.269 16.6012 203.504 16.6012C213.954 16.6012 224.467 17.3173 233.693 18.7073L226.916 9.56649C226.684 9.52437 217.015 8.49234 203.166 8.63977Z" fill="url(#paint4_linear_2532_2427)"/>
<path d="M255.67 14.9794C255.606 27.2374 252.904 40.0219 247.542 53.0171C243.256 63.4217 237.282 73.9105 229.83 84.3993C223.222 93.7086 216.551 101.122 212.159 105.735C207.452 110.685 204.369 113.401 204.137 113.612V122.816C206.248 121.068 263.375 77.8491 263.375 9.58753V9.54541L255.67 14.9794Z" fill="url(#paint5_linear_2532_2427)"/>
<path d="M204.137 113.612C203.884 113.38 200.971 110.579 196.073 105.608C191.386 100.827 185.01 93.7506 178.424 84.4202C171.035 73.9524 165.145 63.4004 160.775 52.9748C160.163 51.5005 159.614 50.1314 159.065 48.6571L159.044 48.615V48.5939C159.044 48.5939 159.044 48.5729 159.044 48.5518L159.023 48.5307L159.001 48.4676C154.8 37.0099 152.689 25.8892 152.605 15.0213L144.941 9.56628C143.801 76.6483 202.258 121.257 204.137 122.816V113.612Z" fill="url(#paint6_linear_2532_2427)"/>
<path d="M204.137 105.461V113.612C204.496 113.296 207.663 110.495 212.159 105.756C216.551 101.144 223.18 93.6876 229.83 84.3993C237.303 73.9737 243.256 63.4007 247.521 53.0172C252.862 40.022 255.628 27.1953 255.67 14.9794L249.421 5.2699C249.104 12.115 248.619 17.0645 247.5 24.4573C246.972 27.785 246.402 30.5863 245.769 33.4928C245.473 34.8618 245.072 36.631 244.502 38.8004C244.46 38.9478 244.439 39.0953 244.396 39.2216C243.805 41.4121 243.024 44.0237 241.99 47.0988C240.702 50.9531 239.857 53.312 239.287 54.7442H239.309C226.832 86.0422 205.636 105.419 204.137 105.461Z" fill="url(#paint7_linear_2532_2427)"/>
<path d="M178.403 84.5046C185.053 93.7929 191.724 101.144 196.115 105.756C200.633 110.516 203.799 113.317 204.137 113.612V105.461C202.554 105.461 181.886 86.674 168.776 54.9759L159.001 48.5099C159.529 49.9632 160.141 51.5639 160.754 53.0171C165.018 63.4217 170.929 74.079 178.403 84.5046Z" fill="url(#paint8_linear_2532_2427)"/>
<path d="M164.005 39.4111C162.253 33.6402 161.281 29.8912 160.268 21.0031L152.605 15.0215C152.647 25.8052 154.821 37.0733 159.001 48.5099L164.005 39.4111Z" fill="url(#paint9_linear_2532_2427)"/>
<path d="M218.767 44.2344L224.193 52.8697L224.235 52.9329C226.008 48.3204 227.761 42.9706 229.26 36.968L218.767 44.2344Z" fill="url(#paint10_linear_2532_2427)"/>
<path d="M152.604 15.0215L152.647 15.0004C160.796 12.7679 169.747 11.125 179.31 10.0509C186.952 9.18735 194.975 8.74505 203.166 8.6608C204.074 8.6608 204.96 8.63974 205.847 8.63974C218.239 8.63974 226.705 9.50328 226.937 9.52434L235.424 2.57392C225.903 1.16278 215.347 0.362427 204.2 0.362427C181.126 0.362427 159.36 4.21675 145.258 9.44009C145.089 9.52434 144.983 9.5454 144.941 9.56646L152.604 15.0215Z" fill="url(#paint11_linear_2532_2427)"/>
<defs>
<linearGradient id="paint0_linear_2532_2427" x1="225.85" y1="-0.74246" x2="268.921" y2="55.8938" gradientUnits="userSpaceOnUse">
<stop stop-color="#434545"/>
<stop offset="0.0545" stop-color="#525454"/>
<stop offset="0.1594" stop-color="#797A7A"/>
<stop offset="0.3028" stop-color="#B8B8B7"/>
<stop offset="0.3593" stop-color="#D3D2D1"/>
<stop offset="0.7489" stop-color="#4E4F4D"/>
<stop offset="1" stop-color="#D3D2D1"/>
</linearGradient>
<linearGradient id="paint1_linear_2532_2427" x1="200.42" y1="149.662" x2="192.594" y2="16.0855" gradientUnits="userSpaceOnUse">
<stop offset="0.0303" stop-color="#6E6E6E"/>
<stop offset="0.0885" stop-color="#929191"/>
<stop offset="0.1212" stop-color="#A19F9F"/>
<stop offset="0.2511" stop-color="#9B9B9B"/>
<stop offset="0.3333" stop-color="#8A8A8A"/>
<stop offset="0.4113" stop-color="#A19F9F"/>
<stop offset="0.5628" stop-color="#9B9B9B"/>
<stop offset="0.778" stop-color="#8B8B8B"/>
<stop offset="0.7836" stop-color="#8A8A8A"/>
<stop offset="0.8485" stop-color="#D3D2D1"/>
<stop offset="1" stop-color="#9B9B9B"/>
</linearGradient>
<linearGradient id="paint2_linear_2532_2427" x1="270.593" y1="-17.4308" x2="232.602" y2="49.3693" gradientUnits="userSpaceOnUse">
<stop stop-color="#434545"/>
<stop offset="0.0545" stop-color="#525454"/>
<stop offset="0.1594" stop-color="#797A7A"/>
<stop offset="0.3028" stop-color="#B8B8B7"/>
<stop offset="0.3593" stop-color="#D3D2D1"/>
<stop offset="0.7489" stop-color="#4E4F4D"/>
<stop offset="1" stop-color="#D3D2D1"/>
</linearGradient>
<linearGradient id="paint3_linear_2532_2427" x1="191.618" y1="-41.6039" x2="191.618" y2="122.967" gradientUnits="userSpaceOnUse">
<stop offset="0.0303" stop-color="#6E6E6E"/>
<stop offset="0.0885" stop-color="#929191"/>
<stop offset="0.1212" stop-color="#A19F9F"/>
<stop offset="0.2511" stop-color="#3D3E3D"/>
<stop offset="0.3333" stop-color="#8A8A8A"/>
<stop offset="0.4113" stop-color="#A19F9F"/>
<stop offset="0.4523" stop-color="#7D7C7C"/>
<stop offset="0.4991" stop-color="#5A5A5A"/>
<stop offset="0.5376" stop-color="#454645"/>
<stop offset="0.5628" stop-color="#3D3E3D"/>
<stop offset="0.6227" stop-color="#4E4E4E"/>
<stop offset="0.7402" stop-color="#797979"/>
<stop offset="0.7836" stop-color="#8A8A8A"/>
<stop offset="0.8485" stop-color="#D3D2D1"/>
<stop offset="1" stop-color="#3D3E3D"/>
</linearGradient>
<linearGradient id="paint4_linear_2532_2427" x1="188.932" y1="-38.5104" x2="203.622" y2="155.497" gradientUnits="userSpaceOnUse">
<stop offset="0.0303" stop-color="#9B9999"/>
<stop offset="0.1212" stop-color="#A19F9F"/>
<stop offset="0.1983" stop-color="#20201F"/>
<stop offset="0.3333" stop-color="#787777"/>
<stop offset="0.4113" stop-color="#A19F9F"/>
<stop offset="0.4254" stop-color="#908E8E"/>
<stop offset="0.4701" stop-color="#605F5F"/>
<stop offset="0.5095" stop-color="#3D3D3C"/>
<stop offset="0.5418" stop-color="#282827"/>
<stop offset="0.5628" stop-color="#20201F"/>
<stop offset="0.6163" stop-color="#313030"/>
<stop offset="0.7212" stop-color="#5B5B5A"/>
<stop offset="0.7836" stop-color="#787777"/>
<stop offset="0.8485" stop-color="#D3D2D1"/>
<stop offset="1" stop-color="#20201F"/>
</linearGradient>
<linearGradient id="paint5_linear_2532_2427" x1="233.75" y1="-12.5577" x2="233.75" y2="136.276" gradientUnits="userSpaceOnUse">
<stop stop-color="#5F5F60"/>
<stop offset="0.0524" stop-color="#6E6E6F"/>
<stop offset="0.1533" stop-color="#959595"/>
<stop offset="0.2888" stop-color="#D3D2D1"/>
<stop offset="0.6363" stop-color="#2E2E2E"/>
</linearGradient>
<linearGradient id="paint6_linear_2532_2427" x1="174.529" y1="-12.567" x2="174.529" y2="136.297" gradientUnits="userSpaceOnUse">
<stop stop-color="#5F5F60"/>
<stop offset="0.0524" stop-color="#6E6E6F"/>
<stop offset="0.1533" stop-color="#959595"/>
<stop offset="0.2888" stop-color="#D3D2D1"/>
<stop offset="0.6363" stop-color="#2E2E2E"/>
</linearGradient>
<linearGradient id="paint7_linear_2532_2427" x1="229.908" y1="77.8279" x2="229.908" y2="-198.802" gradientUnits="userSpaceOnUse">
<stop stop-color="#9D9C9C"/>
<stop offset="0.0551" stop-color="#8E8D8D"/>
<stop offset="0.1611" stop-color="#676666"/>
<stop offset="0.2683" stop-color="#393838"/>
<stop offset="0.4485" stop-color="#D3D2D1"/>
<stop offset="0.7489" stop-color="#393838"/>
<stop offset="1" stop-color="#A3A3A3"/>
</linearGradient>
<linearGradient id="paint8_linear_2532_2427" x1="181.565" y1="77.7575" x2="181.565" y2="-199.399" gradientUnits="userSpaceOnUse">
<stop stop-color="#9D9C9C"/>
<stop offset="0.0551" stop-color="#8E8D8D"/>
<stop offset="0.1611" stop-color="#676666"/>
<stop offset="0.2683" stop-color="#393838"/>
<stop offset="0.4485" stop-color="#D3D2D1"/>
<stop offset="0.7489" stop-color="#393838"/>
<stop offset="1" stop-color="#A3A3A3"/>
</linearGradient>
<linearGradient id="paint9_linear_2532_2427" x1="158.298" y1="77.8583" x2="158.298" y2="-199.077" gradientUnits="userSpaceOnUse">
<stop stop-color="#9D9C9C"/>
<stop offset="0.0551" stop-color="#8E8D8D"/>
<stop offset="0.1611" stop-color="#676666"/>
<stop offset="0.2683" stop-color="#393838"/>
<stop offset="0.4485" stop-color="#D3D2D1"/>
<stop offset="0.7489" stop-color="#393838"/>
<stop offset="1" stop-color="#A3A3A3"/>
</linearGradient>
<linearGradient id="paint10_linear_2532_2427" x1="211.407" y1="45.9417" x2="329.43" y2="38.2819" gradientUnits="userSpaceOnUse">
<stop stop-color="#434545"/>
<stop offset="0.0545" stop-color="#525454"/>
<stop offset="0.1594" stop-color="#797A7A"/>
<stop offset="0.3028" stop-color="#B8B8B7"/>
<stop offset="0.3593" stop-color="#D3D2D1"/>
<stop offset="0.7489" stop-color="#4E4F4D"/>
<stop offset="1" stop-color="#D3D2D1"/>
</linearGradient>
<linearGradient id="paint11_linear_2532_2427" x1="199.051" y1="138.319" x2="188.246" y2="-23.4596" gradientUnits="userSpaceOnUse">
<stop offset="0.0303" stop-color="#878686"/>
<stop offset="0.0601" stop-color="#A8A6A6"/>
<stop offset="0.1002" stop-color="#CFCCCC"/>
<stop offset="0.1212" stop-color="#DEDBDB"/>
<stop offset="0.2511" stop-color="#9B9B9B"/>
<stop offset="0.3333" stop-color="#B2AFB0"/>
<stop offset="0.4113" stop-color="#DEDBDB"/>
<stop offset="0.4163" stop-color="#DBD8D8"/>
<stop offset="0.4784" stop-color="#B8B7B7"/>
<stop offset="0.5295" stop-color="#A3A2A2"/>
<stop offset="0.5628" stop-color="#9B9B9B"/>
<stop offset="0.7293" stop-color="#ABA9AA"/>
<stop offset="0.7836" stop-color="#B2AFB0"/>
<stop offset="0.8485" stop-color="#E3E2E1"/>
<stop offset="1" stop-color="#9B9B9B"/>
</linearGradient>
</defs>
</svg>
